<svg xmlns="http://www.w3.org/2000/svg" width="23.188" height="27.798" viewBox="0 0 23.188 27.798">
  <g id="Group_227" data-name="Group 227" transform="translate(0 0)">
    <path id="Path_130" data-name="Path 130" d="M1216.833,156.2a15.582,15.582,0,0,1-.4,3.784,8.785,8.785,0,0,1-1.147,2.677,6.8,6.8,0,0,1-1.751,1.781A8.346,8.346,0,0,1,1211,165.6a12.907,12.907,0,0,1-3.5.423,14.116,14.116,0,0,1-4.177-.543,6.417,6.417,0,0,1-2.878-1.781,7.376,7.376,0,0,1-1.641-2.919,15.2,15.2,0,0,1-.5-4.277V143.255a14.421,14.421,0,0,0-.1-2.124,2.683,2.683,0,0,0-.292-.876,1.683,1.683,0,0,0-.554-.554,5.347,5.347,0,0,0-1.349-.493v-.986h8.454v.986a4.363,4.363,0,0,0-1.57.634,1.808,1.808,0,0,0-.6,1.057,11.9,11.9,0,0,0-.161,2.355v14.251a11.193,11.193,0,0,0,.413,3.281,4.868,4.868,0,0,0,1.157,2.063,4.419,4.419,0,0,0,1.771,1.067,8.415,8.415,0,0,0,2.557.332,5.843,5.843,0,0,0,2.476-.493,4.45,4.45,0,0,0,1.781-1.5,6.05,6.05,0,0,0,.977-2.476,23.55,23.55,0,0,0,.262-3.945v-12.58a11.02,11.02,0,0,0-.171-2.4,1.922,1.922,0,0,0-.564-.986,4.4,4.4,0,0,0-1.62-.664v-.986h8.031v.986a4.334,4.334,0,0,0-1.6.664,1.873,1.873,0,0,0-.594,1.047,11.558,11.558,0,0,0-.161,2.335Z" transform="translate(-1196 -138.223)" fill="#ed1c24"/>
  </g>
</svg>
