<svg xmlns="http://www.w3.org/2000/svg" width="40" height="40" viewBox="0 0 40 40">
  <g id="Group_8751" data-name="Group 8751" transform="translate(0 0.494)">
    <g id="Group_1158" data-name="Group 1158" transform="translate(0 -0.494)">
      <path id="Path_824" data-name="Path 824" d="M20,0A20,20,0,1,1,0,20,20,20,0,0,1,20,0Z" fill="#DB4453"/>
      <path id="Path_898" data-name="Path 898" d="M17.2,2.956A10.082,10.082,0,0,0,1.342,15.126L.03,19.465a.557.557,0,0,0,.676.7L5.247,18.94a10.015,10.015,0,0,0,4.813,1.231h0a9.963,9.963,0,0,0,9.5-6.6A10.121,10.121,0,0,0,17.2,2.956Zm-2.19,10.716a2.6,2.6,0,0,1-1.7,1.2c-.464.04-.9.212-3.017-.626a10.231,10.231,0,0,1-4.3-3.8,4.748,4.748,0,0,1-1.049-2.6,2.812,2.812,0,0,1,.878-2.1.925.925,0,0,1,.676-.313c.172,0,.333,0,.484.01.182,0,.383.01.565.424.232.5.716,1.746.777,1.867a.484.484,0,0,1,.02.444A1.52,1.52,0,0,1,8.1,8.6c-.121.141-.262.323-.373.434-.121.131-.252.262-.111.515a7.755,7.755,0,0,0,1.4,1.746,6.974,6.974,0,0,0,2.028,1.251c.252.121.4.1.545-.061s.626-.737.8-.989.333-.212.565-.121,1.473.7,1.725.817.424.192.484.293A2.322,2.322,0,0,1,15.015,13.673Z" transform="translate(9.947 9.938)" fill="#fff"/>
    </g>
  </g>
</svg>
