<svg xmlns="http://www.w3.org/2000/svg" width="10.764" height="10.775" viewBox="0 0 10.764 10.775">
  <path id="Path_898" data-name="Path 898" d="M9.188,1.582a5.385,5.385,0,0,0-8.472,6.5L.015,10.4a.3.3,0,0,0,.361.372L2.8,10.119a5.349,5.349,0,0,0,2.571.657h0a5.321,5.321,0,0,0,5.071-3.525A5.405,5.405,0,0,0,9.188,1.582ZM8.018,7.305a1.389,1.389,0,0,1-.905.641c-.248.022-.48.113-1.611-.334a5.465,5.465,0,0,1-2.3-2.032,2.536,2.536,0,0,1-.56-1.39,1.5,1.5,0,0,1,.469-1.121A.494.494,0,0,1,3.475,2.9c.092,0,.178,0,.259.005.1,0,.2.005.3.226.124.269.383.932.415,1a.258.258,0,0,1,.011.237.812.812,0,0,1-.135.226c-.065.075-.14.172-.2.232s-.135.14-.059.275a4.142,4.142,0,0,0,.749.932A3.725,3.725,0,0,0,5.9,6.7c.135.065.216.054.291-.032s.334-.393.426-.528.178-.113.3-.065.787.372.922.437.226.1.259.156A1.24,1.24,0,0,1,8.018,7.305Z" transform="translate(0.002 -0.006)" fill="#fff"/>
</svg>
