<svg xmlns="http://www.w3.org/2000/svg" width="80" height="119" viewBox="0 0 80 119">
  <g id="Group_12227" data-name="Group 12227" transform="translate(-1264 -428)">
    <g id="Rectangle_2641" data-name="Rectangle 2641" transform="translate(1264 428)" fill="#fff" stroke="#eaeaea" stroke-width="1">
      <rect width="80" height="119" rx="5" stroke="none"/>
      <rect x="0.5" y="0.5" width="79" height="118" rx="4.5" fill="none"/>
    </g>
    <g id="Group_12229" data-name="Group 12229" transform="translate(1271.5 432.5)">
      <line id="Line_50" data-name="Line 50" x2="12" transform="translate(0.5 3.5)" fill="none" stroke="#053c6d" stroke-width="1"/>
      <line id="Line_51" data-name="Line 51" x2="22" transform="translate(0.5 7.5)" fill="none" stroke="#053c6d" stroke-width="1"/>
    </g>
    <g id="Group_12300" data-name="Group 12300" transform="translate(0 -5)">
      <g id="Rectangle_2643" data-name="Rectangle 2643" transform="translate(1272 456)" fill="#fff" stroke="#b4b4b4" stroke-width="0.5">
        <rect width="64" height="15" rx="2" stroke="none"/>
        <rect x="0.25" y="0.25" width="63.5" height="14.5" rx="1.75" fill="none"/>
      </g>
      <line id="Line_53" data-name="Line 53" x2="41" transform="translate(1277.5 463.5)" fill="none" stroke="#5f5f5f" stroke-width="1"/>
      <g id="Rectangle_2669" data-name="Rectangle 2669" transform="translate(1277 453)" fill="#b4b4b4" stroke="#fff" stroke-width="3">
        <rect width="28" height="7" stroke="none"/>
        <rect x="1.5" y="1.5" width="25" height="4" fill="none"/>
      </g>
    </g>
    <g id="Group_12303" data-name="Group 12303" transform="translate(0 68)">
      <rect id="Rectangle_2643-2" data-name="Rectangle 2643" width="64" height="15" rx="2" transform="translate(1272 456)" fill="#053c6d"/>
      <g id="Group_12299" data-name="Group 12299" transform="translate(10.94 -2)">
        <line id="Line_53-2" data-name="Line 53" x2="32" transform="translate(1277.06 466)" fill="none" stroke="#fff" stroke-width="2"/>
      </g>
    </g>
    <g id="Group_12309" data-name="Group 12309" transform="translate(0 19)">
      <g id="Rectangle_2643-3" data-name="Rectangle 2643" transform="translate(1272 456)" fill="#fff" stroke="#b4b4b4" stroke-width="0.5">
        <rect width="64" height="15" rx="2" stroke="none"/>
        <rect x="0.25" y="0.25" width="63.5" height="14.5" rx="1.75" fill="none"/>
      </g>
      <line id="Line_53-3" data-name="Line 53" x2="41" transform="translate(1277.5 463.5)" fill="none" stroke="#5f5f5f" stroke-width="1"/>
      <g id="Rectangle_2669-2" data-name="Rectangle 2669" transform="translate(1277 453)" fill="#b4b4b4" stroke="#fff" stroke-width="3">
        <rect width="28" height="7" stroke="none"/>
        <rect x="1.5" y="1.5" width="25" height="4" fill="none"/>
      </g>
    </g>
    <g id="Group_12310" data-name="Group 12310" transform="translate(0 43)">
      <g id="Rectangle_2643-4" data-name="Rectangle 2643" transform="translate(1272 456)" fill="#fff" stroke="#b4b4b4" stroke-width="0.5">
        <rect width="64" height="15" rx="2" stroke="none"/>
        <rect x="0.25" y="0.25" width="63.5" height="14.5" rx="1.75" fill="none"/>
      </g>
      <line id="Line_53-4" data-name="Line 53" x2="41" transform="translate(1277.5 463.5)" fill="none" stroke="#5f5f5f" stroke-width="1"/>
      <g id="Rectangle_2669-3" data-name="Rectangle 2669" transform="translate(1277 453)" fill="#b4b4b4" stroke="#fff" stroke-width="3">
        <rect width="28" height="7" stroke="none"/>
        <rect x="1.5" y="1.5" width="25" height="4" fill="none"/>
      </g>
    </g>
  </g>
</svg>
