<svg xmlns="http://www.w3.org/2000/svg" width="80" height="119" viewBox="0 0 80 119">
  <g id="Group_12227" data-name="Group 12227" transform="translate(-1264 -428)">
    <g id="Rectangle_2641" data-name="Rectangle 2641" transform="translate(1264 428)" fill="#fff" stroke="#eaeaea" stroke-width="1">
      <rect width="80" height="119" rx="5" stroke="none"/>
      <rect x="0.5" y="0.5" width="79" height="118" rx="4.5" fill="none"/>
    </g>
    <g id="Rectangle_2646" data-name="Rectangle 2646" transform="translate(1264 428)" fill="#fff" stroke="#b4b4b4" stroke-width="1">
      <path d="M5,0H75a5,5,0,0,1,5,5V20a0,0,0,0,1,0,0H0a0,0,0,0,1,0,0V5A5,5,0,0,1,5,0Z" stroke="none"/>
      <path d="M5,.5H75A4.5,4.5,0,0,1,79.5,5V19a.5.5,0,0,1-.5.5H1A.5.5,0,0,1,.5,19V5A4.5,4.5,0,0,1,5,.5Z" fill="none"/>
    </g>
    <g id="Group_12229" data-name="Group 12229" transform="translate(1271.5 432.5)">
      <line id="Line_50" data-name="Line 50" x2="12" transform="translate(0.5 3.5)" fill="none" stroke="#053c6d" stroke-width="1"/>
      <line id="Line_51" data-name="Line 51" x2="38" transform="translate(0.5 7.5)" fill="none" stroke="#eaeaea" stroke-width="1"/>
    </g>
    <g id="Group_12300" data-name="Group 12300" transform="translate(0 1)">
      <g id="Rectangle_2643" data-name="Rectangle 2643" transform="translate(1272 456)" fill="#fff" stroke="#b4b4b4" stroke-width="0.5">
        <rect width="64" height="15" rx="2" stroke="none"/>
        <rect x="0.25" y="0.25" width="63.5" height="14.5" rx="1.75" fill="none"/>
      </g>
      <g id="Group_12299" data-name="Group 12299">
        <line id="Line_52" data-name="Line 52" x2="12" transform="translate(1277.5 462)" fill="none" stroke="#b4b4b4" stroke-width="1"/>
        <line id="Line_53" data-name="Line 53" x2="41" transform="translate(1277.5 466)" fill="none" stroke="#5f5f5f" stroke-width="1"/>
      </g>
    </g>
    <g id="Group_12301" data-name="Group 12301" transform="translate(0 22)">
      <g id="Rectangle_2643-2" data-name="Rectangle 2643" transform="translate(1272 456)" fill="#fff" stroke="#b4b4b4" stroke-width="0.5">
        <rect width="64" height="15" rx="2" stroke="none"/>
        <rect x="0.25" y="0.25" width="63.5" height="14.5" rx="1.75" fill="none"/>
      </g>
      <g id="Group_12299-2" data-name="Group 12299">
        <line id="Line_52-2" data-name="Line 52" x2="12" transform="translate(1277.5 462)" fill="none" stroke="#b4b4b4" stroke-width="1"/>
        <line id="Line_53-2" data-name="Line 53" x2="41" transform="translate(1277.5 466)" fill="none" stroke="#5f5f5f" stroke-width="1"/>
      </g>
    </g>
    <g id="Group_12302" data-name="Group 12302" transform="translate(0 43)">
      <g id="Rectangle_2643-3" data-name="Rectangle 2643" transform="translate(1272 456)" fill="#fff" stroke="#b4b4b4" stroke-width="0.5">
        <rect width="64" height="15" rx="2" stroke="none"/>
        <rect x="0.25" y="0.25" width="63.5" height="14.5" rx="1.75" fill="none"/>
      </g>
      <g id="Group_12299-3" data-name="Group 12299">
        <line id="Line_52-3" data-name="Line 52" x2="12" transform="translate(1277.5 462)" fill="none" stroke="#b4b4b4" stroke-width="1"/>
        <line id="Line_53-3" data-name="Line 53" x2="41" transform="translate(1277.5 466)" fill="none" stroke="#5f5f5f" stroke-width="1"/>
      </g>
    </g>
    <g id="Group_12303" data-name="Group 12303" transform="translate(0 68)">
      <rect id="Rectangle_2643-4" data-name="Rectangle 2643" width="64" height="15" rx="2" transform="translate(1272 456)" fill="#053c6d"/>
      <g id="Group_12299-4" data-name="Group 12299" transform="translate(14.446 -2)">
        <line id="Line_53-4" data-name="Line 53" x2="24" transform="translate(1277.554 466)" fill="none" stroke="#fff" stroke-width="2"/>
      </g>
    </g>
  </g>
</svg>
