<svg id="Group_8778" data-name="Group 8778" xmlns="http://www.w3.org/2000/svg" width="40" height="40" viewBox="0 0 40 40">
  <g id="Group_1158" data-name="Group 1158">
    <path id="Path_824" data-name="Path 824" d="M20,0A20,20,0,1,1,0,20,20,20,0,0,1,20,0Z" fill="#5d9cec"/>
    <path id="Path_899" data-name="Path 899" d="M18.233,0H2.026A2.023,2.023,0,0,0,.01,2.026L0,14.182a2.032,2.032,0,0,0,2.026,2.026H18.233a2.032,2.032,0,0,0,2.026-2.026V2.026A2.032,2.032,0,0,0,18.233,0Zm0,4.052-8.1,5.065-8.1-5.065V2.026l8.1,5.065,8.1-5.065Z" transform="translate(9.971 11.849)" fill="#fff"/>
  </g>
</svg>
