<svg xmlns="http://www.w3.org/2000/svg" xmlns:xlink="http://www.w3.org/1999/xlink" width="46" height="46" viewBox="0 0 46 46">
  <defs>
    <filter id="Path_824" x="0" y="0" width="46" height="46" filterUnits="userSpaceOnUse">
      <feOffset dy="1" input="SourceAlpha"/>
      <feGaussianBlur stdDeviation="1" result="blur"/>
      <feFlood flood-opacity="0.102"/>
      <feComposite operator="in" in2="blur"/>
      <feComposite in="SourceGraphic"/>
    </filter>
  </defs>
  <g id="Group_1515" data-name="Group 1515" transform="translate(3 2)">
    <g id="Group_1158" data-name="Group 1158">
      <g transform="matrix(1, 0, 0, 1, -3, -2)" filter="url(#Path_824)">
        <path id="Path_824-2" data-name="Path 824" d="M20,0A20,20,0,1,1,0,20,20,20,0,0,1,20,0Z" transform="translate(3 2)" fill="#4267b2"/>
      </g>
      <path id="Path_903" data-name="Path 903" d="M23.884,24.1h3.61l.567-3.477H23.883v-1.9c0-1.444.5-2.725,1.923-2.725H28.1V12.965a20.5,20.5,0,0,0-2.861-.164c-3.358,0-5.326,1.681-5.326,5.511v2.313H16.457V24.1h3.452V33.66a13.333,13.333,0,0,0,3.975.029Z" transform="translate(-2.083 -3.283)" fill="#fff"/>
    </g>
  </g>
</svg>
