<svg xmlns="http://www.w3.org/2000/svg" xmlns:xlink="http://www.w3.org/1999/xlink" width="66.527" height="66.527" viewBox="0 0 66.527 66.527">
  <defs>
    <linearGradient id="linear-gradient" x1="0.5" x2="0.5" y2="1" gradientUnits="objectBoundingBox">
      <stop offset="0" stop-color="#00b2ff"/>
      <stop offset="1" stop-color="#006aff"/>
    </linearGradient>
    <filter id="Path_824" x="0" y="0" width="66.527" height="66.527" filterUnits="userSpaceOnUse">
      <feOffset dy="1" input="SourceAlpha"/>
      <feGaussianBlur stdDeviation="1" result="blur"/>
      <feFlood flood-opacity="0.102"/>
      <feComposite operator="in" in2="blur"/>
      <feComposite in="SourceGraphic"/>
    </filter>
  </defs>
  <g id="Group_1515" data-name="Group 1515" transform="translate(3 2.494)">
    <g id="Group_1158" data-name="Group 1158">
      <g transform="matrix(1, 0, 0, 1, -3, -2.49)" filter="url(#Path_824)">
        <path id="Path_824-2" data-name="Path 824" d="M30.263,0A30.263,30.263,0,1,1,0,30.263,30.263,30.263,0,0,1,30.263,0Z" transform="translate(3 2)" fill="url(#linear-gradient)"/>
      </g>
      <g id="Group_1526" data-name="Group 1526" transform="translate(-270 -395.383)">
        <g id="Group_1525" data-name="Group 1525" transform="translate(285 408.89)">
          <g id="Group_1527" data-name="Group 1527">
            <path id="Path_902" data-name="Path 902" d="M300.276,408.968c-8.608,0-15.275,6.265-15.275,14.793a14.482,14.482,0,0,0,4.8,10.96,1.291,1.291,0,0,1,.407.864l.089,2.715a1.277,1.277,0,0,0,1.721,1.08l3.028-1.273a1.173,1.173,0,0,1,.815-.06,16.727,16.727,0,0,0,4.416.582c8.608,0,15.275-6.286,15.275-14.8s-6.668-14.858-15.275-14.858Zm9.164,11.357-4.479,7.116a2.275,2.275,0,0,1-1.522,1.029,2.3,2.3,0,0,1-1.79-.418l-3.56-2.635a.918.918,0,0,0-1.109,0l-4.823,3.655a.726.726,0,0,1-1.044-.97l4.479-7.1a2.3,2.3,0,0,1,3.312-.611l3.574,2.669a.909.909,0,0,0,1.095,0l4.823-3.65a.711.711,0,0,1,1.044.915Zm0,0" transform="translate(-284.999 -407.968)" fill="#fff"/>
          </g>
        </g>
      </g>
    </g>
  </g>
</svg>
