<svg xmlns="http://www.w3.org/2000/svg" width="40" height="40" viewBox="0 0 40 40">
  <g id="Group_1531" data-name="Group 1531" transform="translate(-333.062 -133.062)">
    <circle id="Ellipse_1" data-name="Ellipse 1" cx="20" cy="20" r="20" transform="translate(333.062 133.062)" fill="#7360f2"/>
    <g id="Group_1548" data-name="Group 1548" transform="translate(341.691 140.923)">
      <path id="Path_913" data-name="Path 913" d="M88.429,66.8c-.607,5.011-4.187,5.327-4.847,5.544a19.68,19.68,0,0,1-6.174.537L73.85,76.828l0-4.544-.028-.007c-4.78-1.359-4.619-6.455-4.565-9.129s.545-4.866,2-6.34c2.619-2.429,8.015-2.066,8.015-2.066,4.557.021,6.741,1.425,7.247,1.9,1.681,1.474,2.537,5,1.911,10.166m-.668-11.417c-.6-.564-3.017-2.361-8.4-2.385,0,0-6.352-.393-9.449,2.516-1.724,1.765-2.33,4.347-2.394,7.55s-.147,9.2,5.5,10.831l.005,0,0,2.483s-.035,1.006.61,1.21c.782.249,1.241-.516,1.988-1.339.41-.452.975-1.116,1.4-1.623a21.345,21.345,0,0,0,7.174-.541c.781-.26,5.2-.838,5.914-6.838.741-6.187-.359-10.1-2.346-11.864" transform="translate(-67.5 -52.984)" fill="#fff"/>
      <path id="Path_914" data-name="Path 914" d="M159.741,144.487s-.725-.618-1.077-.884a13.789,13.789,0,0,0-1.16-.758,1.009,1.009,0,0,0-1.3.185l-.466.6a.713.713,0,0,1-.7.233,4.942,4.942,0,0,1-2.172-1.33,4.49,4.49,0,0,1-1.381-2.293l-.012-.052a.907.907,0,0,1,.144-.7l.025-.021c.315-.293.9-.649.977-.989.229-.59-.767-1.819-.909-2.036a9.743,9.743,0,0,0-.982-1.142.953.953,0,0,0-1.144-.1l-.022.016c-1.248.845-1.7,1.33-1.578,2.055l.064.291a15.679,15.679,0,0,0,3.679,6.019,15.953,15.953,0,0,0,5.677,3.768,1.563,1.563,0,0,0,1.549-.431l.009-.007a4.956,4.956,0,0,0,.97-1.224l0-.009a.929.929,0,0,0-.19-1.2" transform="translate(-142.926 -129.92)" fill="#fff"/>
      <path id="Path_915" data-name="Path 915" d="M261.407,185.251a.145.145,0,0,1-.143-.139,1.8,1.8,0,0,0-.415-1.178,1.586,1.586,0,0,0-1.107-.436.147.147,0,0,1,.016-.294,1.858,1.858,0,0,1,1.3.526,2.08,2.08,0,0,1,.5,1.368.147.147,0,0,1-.137.154h-.007" transform="translate(-247.586 -175.054)" fill="#fff"/>
      <path id="Path_916" data-name="Path 916" d="M256.527,162.918h0a.146.146,0,0,1-.14-.15,3.5,3.5,0,0,0-.863-2.5,3.144,3.144,0,0,0-1.069-.778,4.312,4.312,0,0,0-1.435-.34.147.147,0,0,1,.021-.294,3.854,3.854,0,0,1,2.7,1.214,3.787,3.787,0,0,1,.938,2.7.146.146,0,0,1-.144.144" transform="translate(-241.282 -152.233)" fill="#fff"/>
      <path id="Path_917" data-name="Path 917" d="M250.663,141.447a.146.146,0,0,1-.144-.146,6.949,6.949,0,0,0-.394-2.361,4.932,4.932,0,0,0-1.138-1.787,5.132,5.132,0,0,0-1.7-1.136,5.592,5.592,0,0,0-2.073-.39.147.147,0,0,1,0-.294h0a5.48,5.48,0,0,1,3.969,1.611,5.209,5.209,0,0,1,1.206,1.893,7.262,7.262,0,0,1,.413,2.463.146.146,0,0,1-.142.148Z" transform="translate(-233.962 -130.179)" fill="#fff"/>
    </g>
  </g>
</svg>
