<svg xmlns="http://www.w3.org/2000/svg" xmlns:xlink="http://www.w3.org/1999/xlink" width="40" height="40" viewBox="0 0 40 40">
  <defs>
    <linearGradient id="linear-gradient" x1="0.5" x2="0.5" y2="1" gradientUnits="objectBoundingBox">
      <stop offset="0" stop-color="#405de6"/>
      <stop offset="0.113" stop-color="#5b51d8"/>
      <stop offset="0.217" stop-color="#833ab4"/>
      <stop offset="0.335" stop-color="#c13584"/>
      <stop offset="0.471" stop-color="#e1306c"/>
      <stop offset="0.599" stop-color="#fd1d1d"/>
      <stop offset="0.702" stop-color="#f56040"/>
      <stop offset="0.797" stop-color="#f77737"/>
      <stop offset="0.905" stop-color="#fcaf45"/>
      <stop offset="1" stop-color="#ffdc80"/>
    </linearGradient>
  </defs>
  <g id="Group_8754" data-name="Group 8754" transform="translate(0 0.494)">
    <g id="Group_1158" data-name="Group 1158" transform="translate(0 -0.494)">
      <path id="Path_824" data-name="Path 824" d="M20,0A20,20,0,1,1,0,20,20,20,0,0,1,20,0Z" fill="url(#linear-gradient)"/>
      <g id="Group_8771" data-name="Group 8771" transform="translate(27.604 34.605)">
        <path id="Path_6980" data-name="Path 6980" d="M40.491,32.193c2.678,0,3,.01,4.053.058a5.548,5.548,0,0,1,1.862.346,3.321,3.321,0,0,1,1.9,1.9,5.554,5.554,0,0,1,.346,1.862c.048,1.058.058,1.375.058,4.053s-.01,3-.058,4.053a5.554,5.554,0,0,1-.346,1.862,3.321,3.321,0,0,1-1.9,1.9,5.548,5.548,0,0,1-1.862.346c-1.058.048-1.375.058-4.053.058s-3-.01-4.053-.058a5.548,5.548,0,0,1-1.862-.346,3.321,3.321,0,0,1-1.9-1.9,5.548,5.548,0,0,1-.346-1.862c-.048-1.058-.058-1.375-.058-4.053s.01-3,.058-4.053a5.548,5.548,0,0,1,.346-1.862,3.321,3.321,0,0,1,1.9-1.9,5.548,5.548,0,0,1,1.862-.346c1.058-.048,1.375-.058,4.053-.058m0-1.807c-2.724,0-3.066.012-4.136.06a7.364,7.364,0,0,0-2.435.466,5.129,5.129,0,0,0-2.934,2.934,7.364,7.364,0,0,0-.466,2.435c-.049,1.07-.06,1.412-.06,4.136s.012,3.066.06,4.136a7.364,7.364,0,0,0,.466,2.435,5.129,5.129,0,0,0,2.934,2.934,7.364,7.364,0,0,0,2.435.466c1.07.049,1.412.06,4.136.06s3.066-.012,4.136-.06a7.364,7.364,0,0,0,2.435-.466,5.129,5.129,0,0,0,2.934-2.934,7.364,7.364,0,0,0,.466-2.435c.049-1.07.06-1.412.06-4.136s-.012-3.066-.06-4.136a7.364,7.364,0,0,0-.466-2.435,5.129,5.129,0,0,0-2.934-2.934,7.364,7.364,0,0,0-2.435-.466c-1.07-.049-1.412-.06-4.136-.06" transform="translate(-48 -55)" fill="#fff"/>
        <path id="Path_6981" data-name="Path 6981" d="M56.287,51.062a5.151,5.151,0,1,0,5.151,5.151,5.151,5.151,0,0,0-5.151-5.151m0,8.494a3.344,3.344,0,1,1,3.344-3.344,3.344,3.344,0,0,1-3.344,3.344" transform="translate(-63.796 -70.796)" fill="#fff"/>
        <path id="Path_6982" data-name="Path 6982" d="M92.954,46.3a1.2,1.2,0,1,1-1.2-1.2,1.2,1.2,0,0,1,1.2,1.2" transform="translate(-93.906 -66.241)" fill="#fff"/>
      </g>
    </g>
  </g>
</svg>
