<svg xmlns="http://www.w3.org/2000/svg" xmlns:xlink="http://www.w3.org/1999/xlink" width="40" height="40" viewBox="0 0 40 40">
  <defs>
    <linearGradient id="linear-gradient" x1="0.5" x2="0.5" y2="1" gradientUnits="objectBoundingBox">
      <stop offset="0" stop-color="#405de6"/>
      <stop offset="0.113" stop-color="#5b51d8"/>
      <stop offset="0.217" stop-color="#833ab4"/>
      <stop offset="0.335" stop-color="#c13584"/>
      <stop offset="0.471" stop-color="#e1306c"/>
      <stop offset="0.599" stop-color="#fd1d1d"/>
      <stop offset="0.702" stop-color="#f56040"/>
      <stop offset="0.797" stop-color="#f77737"/>
      <stop offset="0.905" stop-color="#fcaf45"/>
      <stop offset="1" stop-color="#ffdc80"/>
    </linearGradient>
  </defs>
  <g id="Group_8772" data-name="Group 8772" transform="translate(0 0.494)">
    <g id="Group_1158" data-name="Group 1158" transform="translate(0 -0.494)">
      <path id="Path_824" data-name="Path 824" d="M20,0A20,20,0,1,1,0,20,20,20,0,0,1,20,0Z" fill="url(#linear-gradient)"/>
      <g id="Group_8773" data-name="Group 8773" transform="translate(-660.475 -436.646)">
        <g id="Group_1546" data-name="Group 1546" transform="translate(671.475 447.645)">
          <g id="Group_1545" data-name="Group 1545">
            <path id="Path_908" data-name="Path 908" d="M680.649,447.645a8.836,8.836,0,0,0-9.174,8.884,8.7,8.7,0,0,0,2.882,6.582.775.775,0,0,1,.245.519l.053,1.631a.767.767,0,0,0,1.034.648l1.819-.764a.7.7,0,0,1,.489-.036,10.049,10.049,0,0,0,2.652.349,8.91,8.91,0,1,0,0-17.813Zm5.5,6.821" transform="translate(-671.475 -447.645)" fill="none" stroke="#fff" stroke-width="2"/>
          </g>
        </g>
        <path id="Path_909" data-name="Path 909" d="M686.882,456.8l-2.69,4.273a1.366,1.366,0,0,1-.914.618,1.382,1.382,0,0,1-1.075-.251l-2.138-1.582a.552.552,0,0,0-.666,0l-2.9,2.195a.436.436,0,0,1-.627-.582l2.69-4.264a1.379,1.379,0,0,1,1.989-.367l2.147,1.6a.546.546,0,0,0,.657,0l2.9-2.192a.427.427,0,0,1,.627.55Z" transform="translate(-1.021 -2.007)" fill="#fff"/>
      </g>
    </g>
  </g>
</svg>
