<svg xmlns="http://www.w3.org/2000/svg" xmlns:xlink="http://www.w3.org/1999/xlink" width="66.527" height="66.527" viewBox="0 0 66.527 66.527">
  <defs>
    <filter id="Path_824" x="0" y="0" width="66.527" height="66.527" filterUnits="userSpaceOnUse">
      <feOffset dy="1" input="SourceAlpha"/>
      <feGaussianBlur stdDeviation="1" result="blur"/>
      <feFlood flood-opacity="0.102"/>
      <feComposite operator="in" in2="blur"/>
      <feComposite in="SourceGraphic"/>
    </filter>
  </defs>
  <g id="Group_1515" data-name="Group 1515" transform="translate(3 2.494)">
    <g id="Group_1158" data-name="Group 1158">
      <g transform="matrix(1, 0, 0, 1, -3, -2.49)" filter="url(#Path_824)">
        <path id="Path_824-2" data-name="Path 824" d="M30.263,0A30.263,30.263,0,1,1,0,30.263,30.263,30.263,0,0,1,30.263,0Z" transform="translate(3 2)" fill="#a0d468"/>
      </g>
      <g id="Group_1553" data-name="Group 1553" transform="translate(4108.77 -1111.157)">
        <g id="Group_1553-2" data-name="Group 1553" transform="translate(-4088.77 1125.663)">
          <path id="Path_925" data-name="Path 925" d="M-4085.979,1425.986a8,8,0,0,1-1.317-.6,2.416,2.416,0,0,1-1.06-2.011c-.029-1.561-.01-3.123-.01-4.685a.5.5,0,0,1,.023-.1h20.195v.314q0,2.082,0,4.164a2.747,2.747,0,0,1-2.308,2.878.377.377,0,0,0-.082.041Zm7.718-3.676c.6,0,1.2.005,1.8,0a.92.92,0,0,0,.955-.908.919.919,0,0,0-.965-.927q-1.789-.007-3.577,0a.921.921,0,0,0-.97.923.926.926,0,0,0,.98.913C-4079.443,1422.314-4078.852,1422.31-4078.261,1422.31Z" transform="translate(4088.405 -1394.619)" fill="#fff"/>
          <path id="Path_926" data-name="Path 926" d="M-4088.176,1209.827v-16.561h20.192v16.561Zm13.3-9.193a2.782,2.782,0,0,0,3.231-2.591,2.756,2.756,0,0,0-2.691-2.892,2.674,2.674,0,0,0-1.991.794,2.752,2.752,0,0,0-.793,2.441,3.717,3.717,0,0,1-1.906,0,2.777,2.777,0,0,0-2.5-3.224,2.766,2.766,0,0,0-2.974,2.572,2.674,2.674,0,0,0,.712,2.021,2.767,2.767,0,0,0,2.521.879,3.726,3.726,0,0,1-.01,1.908,2.778,2.778,0,0,0-3.225,2.535,2.77,2.77,0,0,0,2.769,2.941,2.787,2.787,0,0,0,2.713-3.237,3.612,3.612,0,0,1,1.905.007,2.774,2.774,0,0,0,2.51,3.222,2.763,2.763,0,0,0,2.961-2.682,2.672,2.672,0,0,0-.831-2.036,2.743,2.743,0,0,0-2.4-.753A3.722,3.722,0,0,1-4074.881,1200.633Z" transform="translate(4088.225 -1187.734)" fill="#fff"/>
          <path id="Path_927" data-name="Path 927" d="M-4088.77,1129.32a11.322,11.322,0,0,1,.132-1.569,2.72,2.72,0,0,1,2.745-2.086q7.272,0,14.543,0a3.4,3.4,0,0,1,.577.051,2.736,2.736,0,0,1,2.248,2.487c.026.364,0,.731,0,1.116Z" transform="translate(4088.77 -1125.663)" fill="#fff"/>
          <path id="Path_928" data-name="Path 928" d="M-3979.175,1277.579a6.238,6.238,0,0,0,0,2.819,6.253,6.253,0,0,0-2.812.006,6.316,6.316,0,0,0-.006-2.816A5.816,5.816,0,0,0-3979.175,1277.579Z" transform="translate(3990.73 -1265.148)" fill="#fff"/>
          <path id="Path_929" data-name="Path 929" d="M-4020,1238.728a.929.929,0,0,1,.922.906.929.929,0,0,1-.93.929.93.93,0,0,1-.906-.922A.928.928,0,0,1-4020,1238.728Z" transform="translate(4026.471 -1229.476)" fill="#fff"/>
          <path id="Path_930" data-name="Path 930" d="M-3929.23,1239.645a.93.93,0,0,1-.91.918.93.93,0,0,1-.926-.933.929.929,0,0,1,.925-.9A.928.928,0,0,1-3929.23,1239.645Z" transform="translate(3943.97 -1229.476)" fill="#fff"/>
          <path id="Path_931" data-name="Path 931" d="M-4019.99,1330.4a.932.932,0,0,1-.933-.9.929.929,0,0,1,.919-.94.929.929,0,0,1,.917.911A.929.929,0,0,1-4019.99,1330.4Z" transform="translate(4026.475 -1311.965)" fill="#fff"/>
          <path id="Path_932" data-name="Path 932" d="M-3929.23,1329.486a.93.93,0,0,1-.911.918.929.929,0,0,1-.925-.933.929.929,0,0,1,.926-.9A.929.929,0,0,1-3929.23,1329.486Z" transform="translate(3943.97 -1311.964)" fill="#fff"/>
        </g>
      </g>
    </g>
  </g>
</svg>
