<svg id="Group_8784" data-name="Group 8784" xmlns="http://www.w3.org/2000/svg" width="40" height="40" viewBox="0 0 40 40">
  <g id="Group_1158" data-name="Group 1158">
    <path id="Path_824" data-name="Path 824" d="M20,0a20,20,0,0,1,7.657,38.482A19.694,19.694,0,0,1,20,40,20,20,0,0,1,20,0Z" fill="#4fc0e8"/>
    <path id="Path_798" data-name="Path 798" d="M18.156,0H2.017A2.015,2.015,0,0,0,.01,2.017L0,20.174l4.035-4.035H18.156a2.023,2.023,0,0,0,2.017-2.017V2.017A2.023,2.023,0,0,0,18.156,0ZM4.035,7.061h12.1V9.078H4.035ZM12.1,12.1H4.035V10.087H12.1Zm4.035-6.052H4.035V4.035h12.1Z" transform="translate(9.913 9.913)" fill="#fff"/>
  </g>
</svg>
