<svg id="Group_8753" data-name="Group 8753" xmlns="http://www.w3.org/2000/svg" width="40" height="40" viewBox="0 0 40 40">
  <g id="Group_1158" data-name="Group 1158">
    <path id="Path_824" data-name="Path 824" d="M20,0a20,20,0,0,1,7.657,38.482A19.694,19.694,0,0,1,20,40,20,20,0,0,1,20,0Z" fill="#1cb7eb"/>
    <path id="Path_901" data-name="Path 901" d="M119.6-109.978a4.5,4.5,0,0,1-4.065-3.072,4.9,4.9,0,0,0,1.893-.081,4.537,4.537,0,0,1-3.447-4.386,4.719,4.719,0,0,0,1.925.531,4.564,4.564,0,0,1-1.3-5.892,12.579,12.579,0,0,0,9.041,4.642c-.034-.232-.068-.41-.085-.591a4.406,4.406,0,0,1,5.427-4.7,4.261,4.261,0,0,1,1.965,1.1.376.376,0,0,0,.4.1,8.759,8.759,0,0,0,2.273-.877c.064-.037.132-.068.251-.129a3.552,3.552,0,0,1-.7,1.351c-.32.366-.685.692-1.041,1.046a8.334,8.334,0,0,0,2.252-.619l.039.047a6.114,6.114,0,0,1-.466.605c-.482.492-.977.971-1.478,1.443a.442.442,0,0,0-.171.361,12.809,12.809,0,0,1-3.007,8.573,11.59,11.59,0,0,1-8.1,4.266,12.392,12.392,0,0,1-7.182-1.4,6.427,6.427,0,0,1-.738-.464A8.948,8.948,0,0,0,119.6-109.978Z" transform="translate(-103.995 134.862)" fill="#fff"/>
  </g>
</svg>
