<svg xmlns="http://www.w3.org/2000/svg" xmlns:xlink="http://www.w3.org/1999/xlink" width="66.527" height="66.527" viewBox="0 0 66.527 66.527">
  <defs>
    <filter id="Path_824" x="0" y="0" width="66.527" height="66.527" filterUnits="userSpaceOnUse">
      <feOffset dy="1" input="SourceAlpha"/>
      <feGaussianBlur stdDeviation="1" result="blur"/>
      <feFlood flood-opacity="0.102"/>
      <feComposite operator="in" in2="blur"/>
      <feComposite in="SourceGraphic"/>
    </filter>
  </defs>
  <g id="Group_1515" data-name="Group 1515" transform="translate(3 1.534)">
    <g id="Group_1158" data-name="Group 1158">
      <g transform="matrix(1, 0, 0, 1, -3, -1.53)" filter="url(#Path_824)">
        <path id="Path_824-2" data-name="Path 824" d="M30.263,0A30.263,30.263,0,1,1,0,30.263,30.263,30.263,0,0,1,30.263,0Z" transform="translate(3 2)" fill="#ac92ed"/>
      </g>
      <path id="Path_873" data-name="Path 873" d="M26.431,13.531V7.674A1.679,1.679,0,0,0,24.757,6H4.674A1.679,1.679,0,0,0,3,7.674V24.41a1.679,1.679,0,0,0,1.674,1.674H24.757a1.679,1.679,0,0,0,1.674-1.674V18.552l6.695,6.695V6.837Z" transform="translate(12 14.466)" fill="#fff"/>
    </g>
  </g>
</svg>
