<svg id="Group_8783" data-name="Group 8783" xmlns="http://www.w3.org/2000/svg" width="40" height="40" viewBox="0 0 40 40">
  <g id="Group_1158" data-name="Group 1158">
    <path id="Path_824" data-name="Path 824" d="M20,0A20,20,0,1,1,0,20,20,20,0,0,1,20,0Z" fill="#fb6e52"/>
    <path id="Path_897" data-name="Path 897" d="M4.047,8.708a16.934,16.934,0,0,0,7.367,7.367l2.459-2.459a1.111,1.111,0,0,1,1.14-.268A12.751,12.751,0,0,0,19,13.984,1.121,1.121,0,0,1,20.121,15.1V19A1.121,1.121,0,0,1,19,20.121a19,19,0,0,1-19-19A1.121,1.121,0,0,1,1.118,0H5.03A1.121,1.121,0,0,1,6.148,1.118a12.7,12.7,0,0,0,.637,3.991,1.122,1.122,0,0,1-.279,1.14Z" transform="translate(9.239 9.239)" fill="#fff"/>
  </g>
</svg>
