<svg id="Group_8782" data-name="Group 8782" xmlns="http://www.w3.org/2000/svg" width="40" height="40" viewBox="0 0 40 40">
  <g id="Group_1158" data-name="Group 1158">
    <path id="Path_824" data-name="Path 824" d="M20,0a20,20,0,0,1,7.657,38.482A19.694,19.694,0,0,1,20,40,20,20,0,0,1,20,0Z" fill="#26be95"/>
    <path id="Path_900" data-name="Path 900" d="M20.517,5.9H18.568v8.771H5.9v1.949a.977.977,0,0,0,.975.975h10.72l3.9,3.9V6.873A.977.977,0,0,0,20.517,5.9Zm-3.9,5.847V2.975A.977.977,0,0,0,15.644,2H2.975A.977.977,0,0,0,2,2.975V16.619l3.9-3.9h9.746A.977.977,0,0,0,16.619,11.746Z" transform="translate(8.186 8.186)" fill="#fff"/>
  </g>
</svg>
