<svg xmlns="http://www.w3.org/2000/svg" xmlns:xlink="http://www.w3.org/1999/xlink" width="60.53" height="60.53" viewBox="0 0 60.53 60.53"><defs><style>.a{fill:url(#a);}.b{fill:url(#b);}</style><linearGradient id="a" y1="0.5" x2="1" y2="0.5" gradientUnits="objectBoundingBox"><stop offset="0" stop-color="#00ea66"/><stop offset="1" stop-color="#00d50f"/></linearGradient><linearGradient id="b" x1="1.619" y1="-0.264" x2="1.619" y2="-0.281" gradientUnits="objectBoundingBox"><stop offset="0" stop-color="#fff"/><stop offset="1" stop-color="#fff"/></linearGradient></defs><g transform="translate(2810.598 -223.183)"><circle class="a" cx="30.265" cy="30.265" r="30.265" transform="translate(-2810.598 223.183)"/><g transform="translate(-2796.879 239.185)"><path class="b" d="M-2208.3,887.657a18.2,18.2,0,0,0-9.119,2.382c-.442.255-.876.511-1.286.8s-.757.588-1.119.9c-.014.011-.035.013-.048.024a13.069,13.069,0,0,0-4.81,9.913,13.023,13.023,0,0,0,4.692,9.791,2.512,2.512,0,0,1,.023.292,4,4,0,0,1-3.9,4.082,9.059,9.059,0,0,0,3.476.7,8.84,8.84,0,0,0,5.549-2.017,18.7,18.7,0,0,0,6.548,1.19c9.041,0,16.36-6.293,16.36-14.043s-7.32-14.018-16.361-14.018Z" transform="translate(2224.679 -887.657)"/></g></g></svg>