<svg xmlns="http://www.w3.org/2000/svg" xmlns:xlink="http://www.w3.org/1999/xlink" width="66.527" height="66.527" viewBox="0 0 66.527 66.527"><defs><style>.a{fill:#ec5662;}.b{fill:#fff;}.c{filter:url(#a);}</style><filter id="a" x="0" y="0" width="66.527" height="66.527" filterUnits="userSpaceOnUse"><feOffset dy="1" input="SourceAlpha"/><feGaussianBlur stdDeviation="1" result="b"/><feFlood flood-opacity="0.102"/><feComposite operator="in" in2="b"/><feComposite in="SourceGraphic"/></filter></defs><g transform="translate(3 2.494)"><g class="c" transform="matrix(1, 0, 0, 1, -3, -2.49)"><path class="a" d="M30.263,0A30.263,30.263,0,1,1,0,30.263,30.263,30.263,0,0,1,30.263,0Z" transform="translate(3 2)"/></g><g transform="translate(-699.821 -248.353)"><g transform="translate(715.565 265.272)"><path class="b" d="M715.565,283.882v-18.61h28.853v18.61Z" transform="translate(-715.565 -265.272)"/><path class="b" d="M821.614,538.392c-1.131,0-2.239-.009-3.346.007a.451.451,0,0,1-.495-.322,15.035,15.035,0,0,1-.969-3.048h-5.583A14.185,14.185,0,0,1,810.2,538.2a.293.293,0,0,1-.314.2c-1.052-.008-2.105,0-3.158,0h-.3v1.676h15.191Z" transform="translate(-799.578 -514.706)"/><path class="b" d="M821.614,538.392v1.676H806.423v-1.676h.3c1.053,0,2.105,0,3.158,0a.293.293,0,0,0,.314-.2,14.185,14.185,0,0,0,1.024-3.166H816.8a15.035,15.035,0,0,0,.969,3.048.451.451,0,0,0,.495.322C819.375,538.383,820.482,538.392,821.614,538.392Z" transform="translate(-799.578 -514.706)"/></g></g></g></svg>