<svg xmlns="http://www.w3.org/2000/svg" xmlns:xlink="http://www.w3.org/1999/xlink" width="66.527" height="66.527" viewBox="0 0 66.527 66.527"><defs><style>.a{fill:#5d9cec;}.b{fill:#fff;}.c{filter:url(#a);}</style><filter id="a" x="0" y="0" width="66.527" height="66.527" filterUnits="userSpaceOnUse"><feOffset dy="1" input="SourceAlpha"/><feGaussianBlur stdDeviation="1" result="b"/><feFlood flood-opacity="0.102"/><feComposite operator="in" in2="b"/><feComposite in="SourceGraphic"/></filter></defs><g transform="translate(3 2)"><g class="c" transform="matrix(1, 0, 0, 1, -3, -2)"><path class="a" d="M30.263,0A30.263,30.263,0,1,1,0,30.263,30.263,30.263,0,0,1,30.263,0Z" transform="translate(3 2)"/></g><path class="b" d="M27.431,0H3.048A3.044,3.044,0,0,0,.015,3.048L0,21.335a3.057,3.057,0,0,0,3.048,3.048H27.431a3.057,3.057,0,0,0,3.048-3.048V3.048A3.057,3.057,0,0,0,27.431,0Zm0,6.1-12.191,7.62L3.048,6.1V3.048l12.191,7.62,12.191-7.62Z" transform="translate(15 18)"/></g></svg>