<svg xmlns="http://www.w3.org/2000/svg" xmlns:xlink="http://www.w3.org/1999/xlink" width="66.527" height="66.527" viewBox="0 0 66.527 66.527"><defs><style>.a{fill:#4267b2;}.b{fill:#fff;}.c{filter:url(#a);}</style><filter id="a" x="0" y="0" width="66.527" height="66.527" filterUnits="userSpaceOnUse"><feOffset dy="1" input="SourceAlpha"/><feGaussianBlur stdDeviation="1" result="b"/><feFlood flood-opacity="0.102"/><feComposite operator="in" in2="b"/><feComposite in="SourceGraphic"/></filter></defs><g transform="translate(3 2.494)"><g class="c" transform="matrix(1, 0, 0, 1, -3, -2.49)"><path class="a" d="M30.263,0A30.263,30.263,0,1,1,0,30.263,30.263,30.263,0,0,1,30.263,0Z" transform="translate(3 2)"/></g><path class="b" d="M27.381,30.334h5.31l.834-5.394H27.38V21.991c0-2.241.732-4.228,2.828-4.228h3.368V13.056a28.612,28.612,0,0,0-4.209-.255c-4.939,0-7.834,2.608-7.834,8.55V24.94H16.457v5.394h5.077V45.161a20.562,20.562,0,0,0,3.069.254,20.655,20.655,0,0,0,2.778-.21Z" transform="translate(5.543 0.705)"/></g></svg>