<svg xmlns="http://www.w3.org/2000/svg" width="61.607" height="61.607" viewBox="0 0 61.607 61.607"><defs><style>.a{fill:#1a73e8;}.b{fill:#185abc;}.c{fill:#fff;}.d{fill:#8ab4f8;}</style></defs><g transform="translate(-3195.871 7.081)"><circle class="a" cx="30.788" cy="30.788" r="30.788" transform="translate(3195.903 -7.081)"/><path class="b" d="M3682.375,798.292h-20.98a5.425,5.425,0,0,1-5.586-5.237v1.714a5.722,5.722,0,0,0,5.586,5.586h20.98a5.722,5.722,0,0,0,5.586-5.586v-1.746A5.451,5.451,0,0,1,3682.375,798.292Zm-26.6-15.045v-2.38l-3.9-6.443a1.526,1.526,0,0,1-.286-.984v2.729a1.655,1.655,0,0,0,.254.794Z" transform="translate(-444.48 -761.287)"/><path class="c" d="M3682.747,730.939h-29.391a1.236,1.236,0,0,0-1.047,2.095l3.841,6.665v11.9a5.365,5.365,0,0,0,5.237,5.586h21.329a5.678,5.678,0,0,0,5.586-5.586V736.557A5.636,5.636,0,0,0,3682.747,730.939Z" transform="translate(-444.852 -719.833)"/><g transform="translate(3215.486 16.724)"><path class="d" d="M4013.913,961.708h-20.282a1.431,1.431,0,1,1,0-2.793h20.282a1.431,1.431,0,1,1,0,2.793Zm0,5.586h-20.282a1.431,1.431,0,1,1,0-2.793h20.282a1.432,1.432,0,1,1,0,2.793Zm-5.618,5.618h-14.7a1.431,1.431,0,1,1,0-2.793h14.7a1.431,1.431,0,1,1,0,2.793Z" transform="translate(-3991.854 -958.915)"/></g><path class="b" d="M3258.731,1235.833a30.8,30.8,0,0,1-20.98,29.01,30.4,30.4,0,0,1-9.808,1.587,30.777,30.777,0,0,1-30.788-30.6v.19a30.776,30.776,0,0,0,30.788,30.788,31.279,31.279,0,0,0,9.808-1.587,30.809,30.809,0,0,0,20.98-29.2Z" transform="translate(-1.253 -1212.285)"/><path class="d" d="M3236.466-5.489a30.4,30.4,0,0,0-9.808-1.587,30.776,30.776,0,0,0-30.788,30.788v.19a30.777,30.777,0,0,1,30.788-30.6,31.276,31.276,0,0,1,9.808,1.587,30.753,30.753,0,0,1,20.98,29.01v-.19a30.727,30.727,0,0,0-20.98-29.2Z" transform="translate(0 -0.005)"/></g></svg>