<svg xmlns="http://www.w3.org/2000/svg" xmlns:xlink="http://www.w3.org/1999/xlink" width="66.527" height="66.527" viewBox="0 0 66.527 66.527"><defs><style>.a{fill:url(#a);}.b{fill:none;stroke:#fff;stroke-miterlimit:10;stroke-width:2px;}.c{fill:#fff;}.d{filter:url(#b);}</style><linearGradient id="a" x1="0.5" x2="0.5" y2="1" gradientUnits="objectBoundingBox"><stop offset="0" stop-color="#405de6"/><stop offset="0.113" stop-color="#5b51d8"/><stop offset="0.217" stop-color="#833ab4"/><stop offset="0.335" stop-color="#c13584"/><stop offset="0.471" stop-color="#e1306c"/><stop offset="0.599" stop-color="#fd1d1d"/><stop offset="0.702" stop-color="#f56040"/><stop offset="0.797" stop-color="#f77737"/><stop offset="0.905" stop-color="#fcaf45"/><stop offset="1" stop-color="#ffdc80"/></linearGradient><filter id="b" x="0" y="0" width="66.527" height="66.527" filterUnits="userSpaceOnUse"><feOffset dy="1" input="SourceAlpha"/><feGaussianBlur stdDeviation="1" result="c"/><feFlood flood-opacity="0.102"/><feComposite operator="in" in2="c"/><feComposite in="SourceGraphic"/></filter></defs><g transform="translate(3 2)"><g class="d" transform="matrix(1, 0, 0, 1, -3, -2)"><path class="a" d="M30.263,0A30.269,30.269,0,0,1,41.85,58.23a29.8,29.8,0,0,1-11.587,2.3A30.263,30.263,0,0,1,30.263,0Z" transform="translate(3 2)"/></g><g transform="translate(-656.475 -432.645)"><g transform="translate(671.475 447.645)"><path class="b" d="M686.964,447.645c-8.727,0-15.488,6.353-15.488,15a14.684,14.684,0,0,0,4.866,11.113,1.309,1.309,0,0,1,.413.876l.09,2.753a1.3,1.3,0,0,0,1.745,1.094l3.07-1.291a1.19,1.19,0,0,1,.826-.061,16.961,16.961,0,0,0,4.477.59c8.727,0,15.488-6.373,15.488-15.009s-6.76-15.065-15.488-15.065Zm9.291,11.515" transform="translate(-671.475 -447.645)"/></g><path class="c" d="M694.5,457.23l-4.542,7.215a2.307,2.307,0,0,1-1.544,1.043,2.332,2.332,0,0,1-1.815-.423l-3.61-2.672a.931.931,0,0,0-1.124,0l-4.89,3.706a.736.736,0,0,1-1.058-.983l4.542-7.2a2.328,2.328,0,0,1,3.358-.62L687.444,460a.922.922,0,0,0,1.11,0l4.89-3.7a.721.721,0,0,1,1.058.928Z" transform="translate(1.26 2.476)"/></g></g></svg>