<svg xmlns="http://www.w3.org/2000/svg" xmlns:xlink="http://www.w3.org/1999/xlink" width="66.527" height="66.527" viewBox="0 0 66.527 66.527">
  <defs>
    <filter id="Path_824" x="0" y="0" width="66.527" height="66.527" filterUnits="userSpaceOnUse">
      <feOffset dy="1" input="SourceAlpha"/>
      <feGaussianBlur stdDeviation="1" result="blur"/>
      <feFlood flood-opacity="0.102"/>
      <feComposite operator="in" in2="blur"/>
      <feComposite in="SourceGraphic"/>
    </filter>
  </defs>
  <g id="Group_1515" data-name="Group 1515" transform="translate(3 2.494)">
    <g id="Group_1158" data-name="Group 1158">
      <g transform="matrix(1, 0, 0, 1, -3, -2.49)" filter="url(#Path_824)">
        <path id="Path_824-2" data-name="Path 824" d="M30.263,0A30.263,30.263,0,1,1,0,30.263,30.263,30.263,0,0,1,30.263,0Z" transform="translate(3 2)" fill="#06c755"/>
      </g>
      <g id="line-logo-svgrepo-com" transform="translate(13.006 8.672)">
        <path id="Path_6979" data-name="Path 6979" d="M36.493,17.641h0l-.011-.094v-.008l-.042-.353-.029-.244L36.4,16.87l-.018,0a13.893,13.893,0,0,0-3.57-7,18.2,18.2,0,0,0-7.1-4.672,21.542,21.542,0,0,0-7.443-1.3A20.888,20.888,0,0,0,8.494,6.261C2.873,9.247-.442,14.737.048,20.246a14.433,14.433,0,0,0,3.23,7.848,17.421,17.421,0,0,0,6.847,5.016,26.032,26.032,0,0,0,5.093,1.371l.206.041c.484.1.614.227.647.279a.605.605,0,0,1,0,.392c-.023.1-.047.193-.07.29a5.783,5.783,0,0,0-.23,2.441A1.7,1.7,0,0,0,17.5,39.511h0a6.4,6.4,0,0,0,2.866-1.1l.1-.059c1.781-1.046,3.458-2.225,4.721-3.136a41.048,41.048,0,0,0,8.242-7.176A14.176,14.176,0,0,0,36.493,17.641Zm-25.1,5.577H8.235a.863.863,0,0,1-.863-.863V15.732a.863.863,0,1,1,1.727,0v5.76h2.292a.863.863,0,0,1,0,1.727Zm3.292-.887a.863.863,0,1,1-1.727,0V15.708a.863.863,0,1,1,1.727,0Zm7.805,0a.863.863,0,0,1-1.562.507l-3.109-4.283v3.775a.863.863,0,1,1-1.727,0V15.9a.864.864,0,0,1,1.562-.507l3.109,4.283V15.708a.863.863,0,1,1,1.727,0Zm6.292.728H24.507a.863.863,0,0,1-.863-.863V15.572a.863.863,0,0,1,.863-.863h4.141a.863.863,0,1,1,0,1.727H25.37v1.585h2.66a.863.863,0,1,1,0,1.727H25.37v1.585h3.41a.863.863,0,1,1,0,1.727Z" transform="translate(-0.614 -0.597)" fill="#fff"/>
      </g>
    </g>
  </g>
</svg>
