<svg xmlns="http://www.w3.org/2000/svg" xmlns:xlink="http://www.w3.org/1999/xlink" width="66.527" height="66.527" viewBox="0 0 66.527 66.527"><defs><style>.a{fill:#4fc0e8;}.b{fill:#fff;}.c{filter:url(#a);}</style><filter id="a" x="0" y="0" width="66.527" height="66.527" filterUnits="userSpaceOnUse"><feOffset dy="1" input="SourceAlpha"/><feGaussianBlur stdDeviation="1" result="b"/><feFlood flood-opacity="0.102"/><feComposite operator="in" in2="b"/><feComposite in="SourceGraphic"/></filter></defs><g transform="translate(3 2)"><g class="c" transform="matrix(1, 0, 0, 1, -3, -2)"><path class="a" d="M30.263,0A30.269,30.269,0,0,1,41.85,58.23a29.8,29.8,0,0,1-11.587,2.3A30.263,30.263,0,0,1,30.263,0Z" transform="translate(3 2)"/></g><path class="b" d="M27.113,0H3.013a3.009,3.009,0,0,0-3,3.013L0,30.126,6.025,24.1H27.113a3.021,3.021,0,0,0,3.013-3.013V3.013A3.021,3.021,0,0,0,27.113,0ZM6.025,10.544H24.1v3.013H6.025Zm12.05,7.531H6.025V15.063h12.05ZM24.1,9.038H6.025V6.025H24.1Z" transform="translate(15.201 15.201)"/></g></svg>