<svg xmlns="http://www.w3.org/2000/svg" xmlns:xlink="http://www.w3.org/1999/xlink" width="66.527" height="66.527" viewBox="0 0 66.527 66.527"><defs><style>.a{fill:#1cb7eb;}.b{fill:#fff;}.c{filter:url(#a);}</style><filter id="a" x="0" y="0" width="66.527" height="66.527" filterUnits="userSpaceOnUse"><feOffset dy="1" input="SourceAlpha"/><feGaussianBlur stdDeviation="1" result="b"/><feFlood flood-opacity="0.102"/><feComposite operator="in" in2="b"/><feComposite in="SourceGraphic"/></filter></defs><g transform="translate(3 2)"><g class="c" transform="matrix(1, 0, 0, 1, -3, -2)"><path class="a" d="M30.263,0A30.269,30.269,0,0,1,41.85,58.23a29.8,29.8,0,0,1-11.587,2.3A30.263,30.263,0,0,1,30.263,0Z" transform="translate(3 2)"/></g><path class="b" d="M122.875-103.041a6.834,6.834,0,0,1-6.173-4.63,7.5,7.5,0,0,0,2.875-.122,6.847,6.847,0,0,1-5.235-6.609,7.21,7.21,0,0,0,2.924.8c-2.92-2.462-3.54-5.38-1.967-8.879a19.152,19.152,0,0,0,13.731,7c-.052-.349-.1-.618-.13-.89a6.674,6.674,0,0,1,8.242-7.088,6.484,6.484,0,0,1,2.985,1.659.574.574,0,0,0,.608.156,13.364,13.364,0,0,0,3.452-1.321c.1-.056.2-.1.381-.195a5.34,5.34,0,0,1-1.067,2.036c-.486.552-1.041,1.043-1.581,1.577a12.734,12.734,0,0,0,3.42-.933l.059.071a9.222,9.222,0,0,1-.707.912c-.732.741-1.484,1.463-2.244,2.175a.664.664,0,0,0-.26.545,19.212,19.212,0,0,1-4.567,12.919,17.643,17.643,0,0,1-12.307,6.429,18.942,18.942,0,0,1-10.907-2.113,9.772,9.772,0,0,1-1.121-.7A13.664,13.664,0,0,0,122.875-103.041Z" transform="translate(-99.285 140.662)"/></g></svg>