<svg xmlns="http://www.w3.org/2000/svg" width="60.53" height="60.53" viewBox="0 0 60.53 60.53"><defs><style>.a{fill:#7360f2;}.b{fill:#fff;}</style></defs><g transform="translate(-333.062 -133.062)"><circle class="a" cx="30.265" cy="30.265" r="30.265" transform="translate(333.062 133.062)"/><g transform="translate(278.987 92.378)"><path class="b" d="M98.5,73.455c-.9,7.422-6.2,7.891-7.18,8.212a29.151,29.151,0,0,1-9.146.8L76.906,88.3l-.005-6.73-.042-.011C69.779,79.549,70.017,72,70.1,68.039s.807-7.208,2.967-9.391c3.879-3.6,11.872-3.06,11.872-3.06,6.75.031,9.985,2.11,10.735,2.808C98.161,60.58,99.43,65.8,98.5,73.455m-.989-16.911c-.886-.835-4.469-3.5-12.449-3.533,0,0-9.409-.581-14,3.727-2.553,2.614-3.452,6.439-3.547,11.183S67.3,81.552,75.673,83.963l.008,0,0,3.678s-.052,1.49.9,1.792c1.159.368,1.838-.764,2.944-1.984.608-.669,1.445-1.653,2.077-2.4a31.618,31.618,0,0,0,10.627-.8c1.156-.385,7.7-1.242,8.76-10.129,1.1-9.164-.532-14.959-3.476-17.574"/><path class="b" d="M165.411,149.026s-1.073-.916-1.6-1.309a20.432,20.432,0,0,0-1.718-1.122,1.494,1.494,0,0,0-1.926.274l-.691.889a1.055,1.055,0,0,1-1.043.345,7.321,7.321,0,0,1-3.217-1.97,6.651,6.651,0,0,1-2.046-3.4l-.018-.078a1.344,1.344,0,0,1,.213-1.038l.037-.031c.467-.434,1.331-.962,1.447-1.465.34-.873-1.136-2.694-1.347-3.016a14.433,14.433,0,0,0-1.455-1.692,1.411,1.411,0,0,0-1.694-.143l-.033.024c-1.849,1.251-2.519,1.971-2.337,3.044l.1.432a23.225,23.225,0,0,0,5.449,8.915,23.631,23.631,0,0,0,8.409,5.582,2.316,2.316,0,0,0,2.294-.638l.013-.01a7.341,7.341,0,0,0,1.437-1.813l0-.013a1.376,1.376,0,0,0-.281-1.771" transform="translate(-73.003 -74.465)"/><path class="b" d="M262.274,186.237a.215.215,0,0,1-.212-.207,2.661,2.661,0,0,0-.614-1.745,2.349,2.349,0,0,0-1.639-.646.218.218,0,0,1,.023-.436,2.752,2.752,0,0,1,1.922.779,3.081,3.081,0,0,1,.733,2.026.217.217,0,0,1-.2.228h-.011" transform="translate(-174.3 -118.149)"/><path class="b" d="M258.28,164.872h-.005a.217.217,0,0,1-.208-.223,5.178,5.178,0,0,0-1.278-3.7,4.657,4.657,0,0,0-1.584-1.153,6.387,6.387,0,0,0-2.126-.5.218.218,0,0,1,.031-.435,5.71,5.71,0,0,1,3.994,1.8,5.61,5.61,0,0,1,1.389,4,.216.216,0,0,1-.213.213" transform="translate(-168.199 -96.061)"/><path class="b" d="M253.353,144.39a.216.216,0,0,1-.213-.216,10.294,10.294,0,0,0-.584-3.5,7.306,7.306,0,0,0-1.686-2.647,7.6,7.6,0,0,0-2.515-1.683,8.283,8.283,0,0,0-3.07-.578.218.218,0,0,1,0-.436h0a8.118,8.118,0,0,1,5.879,2.386,7.715,7.715,0,0,1,1.787,2.8,10.756,10.756,0,0,1,.612,3.648.216.216,0,0,1-.211.22Z" transform="translate(-161.114 -74.715)"/></g></g></svg>