<svg xmlns="http://www.w3.org/2000/svg" xmlns:xlink="http://www.w3.org/1999/xlink" width="66.527" height="66.527" viewBox="0 0 66.527 66.527"><defs><style>.a{fill:#ac92ed;}.b{fill:#fff;}.c{filter:url(#a);}</style><filter id="a" x="0" y="0" width="66.527" height="66.527" filterUnits="userSpaceOnUse"><feOffset dy="1" input="SourceAlpha"/><feGaussianBlur stdDeviation="1" result="b"/><feFlood flood-opacity="0.102"/><feComposite operator="in" in2="b"/><feComposite in="SourceGraphic"/></filter></defs><g transform="translate(3 1.534)"><g class="c" transform="matrix(1, 0, 0, 1, -3, -1.53)"><path class="a" d="M30.263,0A30.263,30.263,0,1,1,0,30.263,30.263,30.263,0,0,1,30.263,0Z" transform="translate(3 2)"/></g><path class="b" d="M26.431,13.531V7.674A1.679,1.679,0,0,0,24.757,6H4.674A1.679,1.679,0,0,0,3,7.674V24.41a1.679,1.679,0,0,0,1.674,1.674H24.757a1.679,1.679,0,0,0,1.674-1.674V18.552l6.695,6.695V6.837ZM21.41,17.716H16.389v5.021H13.042V17.716H8.021V14.368h5.021V9.347h3.347v5.021H21.41Z" transform="translate(12 14.466)"/></g></svg>