<svg xmlns="http://www.w3.org/2000/svg" xmlns:xlink="http://www.w3.org/1999/xlink" width="66.527" height="66.527" viewBox="0 0 66.527 66.527"><defs><style>.a{fill:#26be95;}.b{fill:#fff;}.c{filter:url(#a);}</style><filter id="a" x="0" y="0" width="66.527" height="66.527" filterUnits="userSpaceOnUse"><feOffset dy="1" input="SourceAlpha"/><feGaussianBlur stdDeviation="1" result="b"/><feFlood flood-opacity="0.102"/><feComposite operator="in" in2="b"/><feComposite in="SourceGraphic"/></filter></defs><g transform="translate(3 2)"><g class="c" transform="matrix(1, 0, 0, 1, -3, -2)"><path class="a" d="M30.263,0A30.269,30.269,0,0,1,41.85,58.23a29.8,29.8,0,0,1-11.587,2.3A30.263,30.263,0,0,1,30.263,0Z" transform="translate(3 2)"/></g><path class="b" d="M30.81,8.065H27.777V21.712H8.065v3.033a1.521,1.521,0,0,0,1.516,1.516H26.261l6.065,6.065V9.582A1.521,1.521,0,0,0,30.81,8.065Zm-6.065,9.1V3.516A1.521,1.521,0,0,0,23.228,2H3.516A1.521,1.521,0,0,0,2,3.516V24.745l6.065-6.065H23.228A1.521,1.521,0,0,0,24.745,17.163Z" transform="translate(13 13)"/></g></svg>