<svg id="Group_12995" data-name="Group 12995" xmlns="http://www.w3.org/2000/svg" xmlns:xlink="http://www.w3.org/1999/xlink" width="25.281" height="25.311" viewBox="0 0 25.281 25.311">
  <defs>
    <clipPath id="clip-path">
      <rect id="Rectangle_2763" data-name="Rectangle 2763" width="25.281" height="25.311" fill="none"/>
    </clipPath>
  </defs>
  <g id="Group_12994" data-name="Group 12994" clip-path="url(#clip-path)">
    <path id="Path_24334" data-name="Path 24334" d="M59.113,139.47h8.239a.973.973,0,0,0,.974-.974v-.142a.974.974,0,0,0-.974-.974H59.113a.974.974,0,0,0-.974.974v.142a.974.974,0,0,0,.974.974" transform="translate(-50.438 -119.182)" fill="#ff4e56"/>
    <rect id="Rectangle_2762" data-name="Rectangle 2762" width="0.711" height="3.597" transform="translate(12.441 1.244)" fill="#263238"/>
    <path id="Path_24335" data-name="Path 24335" d="M159.3,88.307a2.09,2.09,0,1,0,2.09-2.09,2.09,2.09,0,0,0-2.09,2.09" transform="translate(-138.201 -74.797)" fill="#ff4e56"/>
    <path id="Path_24336" data-name="Path 24336" d="M0,87.268a2.09,2.09,0,1,0,2.09-2.09A2.09,2.09,0,0,0,0,87.268" transform="translate(0 -73.895)" fill="#ff4e56"/>
    <path id="Path_24337" data-name="Path 24337" d="M27.91,30.625s-8.5-.1-9.844,7.259,5.842,7.5,7.909,7.638c.937.063,2.943.07,4.712.039,3.918-.068,6.686-.826,7.628-4.461a6.909,6.909,0,0,0,.212-1.3c.249-3.984-2.447-9.369-10.617-9.173" transform="translate(-15.529 -26.564)" fill="#053c6d"/>
    <path id="Path_24338" data-name="Path 24338" d="M43.564,84.6l-12.347.193a2.344,2.344,0,1,1-.073-4.686l12.347-.193a2.344,2.344,0,1,1,.073,4.686" transform="translate(-25.017 -69.329)" fill="#ffd602"/>
    <path id="Path_24339" data-name="Path 24339" d="M56.387,91.536a.752.752,0,1,1-.593-.883.752.752,0,0,1,.593.883" transform="translate(-47.625 -78.633)" fill="#fff"/>
    <path id="Path_24340" data-name="Path 24340" d="M121.507,90.5a.752.752,0,1,1-.593-.882.752.752,0,0,1,.593.882" transform="translate(-104.119 -77.731)" fill="#fff"/>
    <path id="Path_24341" data-name="Path 24341" d="M87.754,1.172A1.172,1.172,0,1,0,88.926,0a1.172,1.172,0,0,0-1.172,1.172" transform="translate(-76.13)" fill="#ff4e56"/>
    <path id="Path_24342" data-name="Path 24342" d="M81.866,94.789c.056.006.028.269.192.619a1.555,1.555,0,0,0,.4.525,1.205,1.205,0,0,0,1.458.133,1.553,1.553,0,0,0,.488-.444c.225-.314.245-.578.3-.574.022,0,.045.067.045.191a1.165,1.165,0,0,1-.137.508,1.561,1.561,0,0,1-.528.587,1.428,1.428,0,0,1-1.842-.168,1.56,1.56,0,0,1-.413-.673,1.166,1.166,0,0,1-.043-.524c.023-.122.057-.184.079-.18" transform="translate(-70.942 -82.233)" fill="#fff"/>
    <path id="Path_24343" data-name="Path 24343" d="M167.891,89.331c-.012-.007.14-.238.287-.656a7.166,7.166,0,0,0,.345-1.688,12.5,12.5,0,0,0,.04-1.729c-.01-.221-.021-.4-.031-.524a1.034,1.034,0,0,1-.007-.193,1.026,1.026,0,0,1,.034.19c.018.123.036.3.053.524a10.532,10.532,0,0,1-.02,1.738,6.507,6.507,0,0,1-.368,1.7,3.245,3.245,0,0,1-.225.478,1.039,1.039,0,0,1-.107.161" transform="translate(-145.652 -73.343)" fill="#263238"/>
    <path id="Path_24344" data-name="Path 24344" d="M17.175,83.643a1.052,1.052,0,0,1-.042.189c-.016.06-.035.133-.053.22s-.043.183-.06.293a6.507,6.507,0,0,0-.093.772,6.408,6.408,0,0,0,.168,1.89,6.528,6.528,0,0,0,.228.744c.035.105.077.2.11.278s.064.151.091.207a1.04,1.04,0,0,1,.075.179,1.046,1.046,0,0,1-.1-.167c-.03-.054-.066-.122-.1-.2s-.082-.171-.121-.276a5.834,5.834,0,0,1-.244-.746,6.017,6.017,0,0,1-.169-1.909,5.8,5.8,0,0,1,.109-.777c.02-.11.048-.207.07-.293s.044-.159.065-.218a1.045,1.045,0,0,1,.068-.182" transform="translate(-14.618 -72.563)" fill="#263238"/>
    <path id="Path_24345" data-name="Path 24345" d="M23.836,176.126a.313.313,0,0,1,.051.015l.148.05.565.2.407.145c.15.05.315.1.492.152.354.105.752.241,1.2.348l.707.181c.246.062.506.108.773.166.533.122,1.111.206,1.717.3a30.671,30.671,0,0,0,3.984.285,30.69,30.69,0,0,0,3.985-.284c.606-.1,1.185-.181,1.718-.3.267-.058.527-.1.773-.166l.707-.181c.453-.107.851-.243,1.2-.348.176-.055.342-.1.492-.152l.407-.145.565-.2.148-.05a.027.027,0,1,1,0,.007l-.145.057-.561.211-.406.151c-.15.052-.314.1-.49.158-.353.109-.751.248-1.2.358l-.707.186c-.246.063-.507.111-.774.17-.534.125-1.113.21-1.72.31a30.12,30.12,0,0,1-3.994.29,30.1,30.1,0,0,1-3.993-.291c-.607-.1-1.187-.186-1.72-.311-.267-.059-.528-.107-.774-.17l-.707-.186c-.453-.11-.851-.249-1.2-.358-.176-.057-.341-.106-.491-.158l-.406-.151-.561-.211-.145-.057a.311.311,0,0,1-.049-.021" transform="translate(-20.679 -152.796)" fill="#263238"/>
    <path id="Path_24346" data-name="Path 24346" d="M24.142,159.923s1.151-2.388,10.041-2.489,10.041,2.489,10.041,2.489a26.321,26.321,0,0,1-20.083,0" transform="translate(-20.944 -136.578)" fill="#053c6d"/>
    <path id="Path_24347" data-name="Path 24347" d="M29.475,34.8a.106.106,0,0,1-.031.005l-.09.008c-.079.008-.2.011-.345.029a9.322,9.322,0,0,0-1.254.208,9.1,9.1,0,0,0-6.24,5.15,9.307,9.307,0,0,0-.442,1.192c-.046.143-.071.258-.094.333l-.025.087a.108.108,0,0,1-.011.029.1.1,0,0,1,0-.031l.018-.088c.019-.077.039-.193.081-.338a8.451,8.451,0,0,1,.423-1.2,8.956,8.956,0,0,1,.935-1.647,8.828,8.828,0,0,1,3.545-2.925,8.953,8.953,0,0,1,1.794-.605,8.433,8.433,0,0,1,1.263-.187c.15-.014.268-.012.347-.016h.09a.1.1,0,0,1,.031,0" transform="translate(-18.169 -30.192)" fill="#fff"/>
    <path id="Path_24348" data-name="Path 24348" d="M20.35,99.132a.983.983,0,0,1-.121-.265,3.759,3.759,0,0,1-.216-1.381.98.98,0,0,1,.034-.289c.022,0-.008.443.077.978s.246.948.226.955" transform="translate(-17.36 -84.323)" fill="#fff"/>
    <path id="Path_24349" data-name="Path 24349" d="M3.2,91.909s-.03-.021-.072-.071a1.284,1.284,0,0,1-.15-.231,1.511,1.511,0,0,1,.227-1.71,1.289,1.289,0,0,1,.205-.184c.053-.037.085-.054.088-.05s-.112.091-.256.266a1.563,1.563,0,0,0-.22,1.657c.093.207.187.316.177.324" transform="translate(-2.44 -77.785)" fill="#fff"/>
    <path id="Path_24350" data-name="Path 24350" d="M89.924,2.306a1.793,1.793,0,0,0-.312-.008.86.86,0,0,0-.612.37.861.861,0,0,0-.082.711,1.793,1.793,0,0,0,.137.28s-.028-.016-.064-.059a.719.719,0,0,1-.119-.205.832.832,0,0,1,.736-1.146.723.723,0,0,1,.236.022c.054.015.081.03.08.034" transform="translate(-77.05 -1.951)" fill="#fff"/>
    <path id="Path_24351" data-name="Path 24351" d="M177,90.9c-.014.016-.221-.181-.532-.33s-.592-.192-.589-.213A1.516,1.516,0,0,1,177,90.9" transform="translate(-152.584 -78.384)" fill="#fff"/>
    <path id="Path_24352" data-name="Path 24352" d="M77.036,76.433c0,.019-1.626.034-3.632.034s-3.632-.015-3.632-.034S71.4,76.4,73.4,76.4s3.632.015,3.632.034" transform="translate(-60.529 -66.279)" fill="#fff"/>
    <path id="Path_24353" data-name="Path 24353" d="M39.543,130.17a.213.213,0,0,1-.061.01l-.177.015c-.077.006-.171.013-.281.014s-.235.009-.373,0a9.6,9.6,0,0,1-.969-.058,9.841,9.841,0,0,1-2.311-.544,9.64,9.64,0,0,1-.893-.38c-.126-.058-.235-.119-.332-.17s-.179-.1-.245-.138l-.152-.093a.208.208,0,0,1-.05-.036.215.215,0,0,1,.057.024l.158.081c.068.037.151.081.25.128s.208.106.335.16c.249.117.552.241.894.365a10.584,10.584,0,0,0,2.3.541c.361.042.688.066.963.072.137.007.262,0,.371.006s.2,0,.281,0l.178,0a.217.217,0,0,1,.062,0" transform="translate(-29.235 -111.733)" fill="#fff"/>
  </g>
</svg>
