<svg id="Group_13079" data-name="Group 13079" xmlns="http://www.w3.org/2000/svg" xmlns:xlink="http://www.w3.org/1999/xlink" width="23.965" height="24" viewBox="0 0 23.965 24">
  <defs>
    <clipPath id="clip-path">
      <rect id="Rectangle_2770" data-name="Rectangle 2770" width="23.965" height="24" fill="#fff"/>
    </clipPath>
  </defs>
  <g id="Group_13075" data-name="Group 13075" clip-path="url(#clip-path)">
    <path id="Path_24376" data-name="Path 24376" d="M69.019,24h-.328a.783.783,0,0,1-.423-.831c.021-.3,0-.609,0-.914V21H66.588a2.989,2.989,0,0,1-3.108-3.092q0-5,0-10.006a2.988,2.988,0,0,1,3.083-3.093h.511c0-.363-.013-.7,0-1.031a.354.354,0,0,0-.233-.39A1.776,1.776,0,0,1,66,1.153a1.8,1.8,0,0,1,3.474.528,1.82,1.82,0,0,1-1.01,1.74c-.073.036-.177.111-.179.171-.016.4-.008.792-.008,1.2h7.2c0-.343-.01-.67,0-1a.372.372,0,0,0-.237-.412,1.778,1.778,0,0,1-.69-2.547,1.8,1.8,0,1,1,2.3,2.585c-.073.036-.177.112-.179.173-.016.395-.008.791-.008,1.216.244,0,.461-.007.678,0a2.985,2.985,0,0,1,2.922,3.019q.006,5.073,0,10.147A3,3,0,0,1,77.251,21c-.711,0-1.426.05-2.131-.012a3.494,3.494,0,0,0-2.371.68c-1.213.823-2.483,1.559-3.73,2.332m2.844-7.188a10.238,10.238,0,0,0,4.381-.927.6.6,0,1,0-.491-1.093,9.494,9.494,0,0,1-5.421.7,8.033,8.033,0,0,1-2.365-.708.593.593,0,0,0-.843.293.609.609,0,0,0,.382.812,10.227,10.227,0,0,0,4.357.926m4.8-6.672a1.8,1.8,0,0,0-3.589.046.6.6,0,0,0,1.193.064c.051-.418.26-.64.6-.64s.551.219.606.616a.6.6,0,1,0,1.188-.085m-6,0a1.794,1.794,0,0,0-3.587.032.6.6,0,0,0,1.19.077c.048-.412.264-.637.608-.635s.55.224.6.62a.6.6,0,1,0,1.186-.093" transform="translate(-59.876 0)" fill="#fff"/>
    <path id="Path_24377" data-name="Path 24377" d="M2.387,169.265v5.968A1.856,1.856,0,0,1,0,173.431c0-.781,0-1.561,0-2.342a1.791,1.791,0,0,1,1.8-1.823c.186,0,.373,0,.582,0" transform="translate(0 -159.658)" fill="#fff"/>
    <path id="Path_24378" data-name="Path 24378" d="M380.787,168.545a8.805,8.805,0,0,1,1.155.145,1.719,1.719,0,0,1,1.2,1.635c-.038.826-.009,1.656-.009,2.484a1.734,1.734,0,0,1-1.66,1.769c-.223.015-.448,0-.685,0Z" transform="translate(-359.177 -158.98)" fill="#fff"/>
  </g>
</svg>
