<svg id="Group_13081" data-name="Group 13081" xmlns="http://www.w3.org/2000/svg" xmlns:xlink="http://www.w3.org/1999/xlink" width="24" height="24" viewBox="0 0 24 24">
  <defs>
    <clipPath id="clip-path">
      <rect id="Rectangle_2771" data-name="Rectangle 2771" width="24" height="24" fill="#fff"/>
    </clipPath>
  </defs>
  <g id="Group_13077" data-name="Group 13077" clip-path="url(#clip-path)">
    <path id="Path_24379" data-name="Path 24379" d="M8.826,24a.805.805,0,0,1-.426-.831c.02-.71.006-1.421.006-2.169H8.152c-.907,0-1.815,0-2.722,0A3,3,0,0,1,2.4,17.982c0-.78,0-1.561,0-2.376-.181,0-.349,0-.518,0A1.805,1.805,0,0,1,0,13.733Q0,12.6,0,11.46A1.8,1.8,0,0,1,1.849,9.606c.171,0,.342,0,.551,0,0-.1,0-.193,0-.283.012-.648-.023-1.3.046-1.942A2.937,2.937,0,0,1,5.174,4.825c.569-.032,1.142-.013,1.713-.016H7.2c0-.425.007-.835-.008-1.245,0-.052-.112-.111-.182-.148a1.743,1.743,0,0,1-1-1.578A1.707,1.707,0,0,1,6.971.213,1.794,1.794,0,1,1,8.608,3.4a.3.3,0,0,0-.206.332c.014.343,0,.686,0,1.05h7.212c0-.4.008-.805-.009-1.207,0-.059-.116-.128-.192-.166a1.819,1.819,0,0,1-1-1.746A1.8,1.8,0,0,1,17.876,1.1a1.788,1.788,0,0,1-.862,2.307.3.3,0,0,0-.2.335c.013.343,0,.686,0,1.054.1,0,.18.013.263.013.493,0,.986,0,1.478,0a3,3,0,0,1,3.07,3.071c0,.484,0,.969,0,1.453,0,.083,0,.167,0,.276.239,0,.448,0,.657,0a1.785,1.785,0,0,1,1.65,1.241,1.266,1.266,0,0,1,.052.368c0,.883-.031,1.767.013,2.648a1.759,1.759,0,0,1-1.432,1.7c-.3.048-.6.044-.94.066,0,.087,0,.177,0,.267-.007.8.027,1.6-.03,2.389A2.963,2.963,0,0,1,18.642,21C17.172,21,15.7,21,14.23,21a.876.876,0,0,0-.434.122c-1.43.882-2.853,1.774-4.279,2.662-.119.074-.242.141-.363.211Zm.787-1.691c.114-.068.182-.106.247-.146,1.16-.724,2.322-1.445,3.477-2.175a1.221,1.221,0,0,1,.684-.193q2.253.008,4.505,0a1.793,1.793,0,0,0,1.892-1.9q0-4.991,0-9.983A1.8,1.8,0,0,0,18.507,6q-6.5,0-13,0a1.8,1.8,0,0,0-1.9,1.9q0,5,0,10.006a1.785,1.785,0,0,0,1.9,1.889c1.1,0,2.19,0,3.285,0,.617,0,.82.2.82.809,0,.553,0,1.106,0,1.7M2.389,10.816c-.235,0-.454-.017-.669,0a.531.531,0,0,0-.505.525q-.019,1.264,0,2.528a.528.528,0,0,0,.469.51c.229.023.463,0,.7,0Zm19.252,0V14.4c.218,0,.42.009.62,0a.563.563,0,0,0,.552-.559q.014-1.228,0-2.456a.552.552,0,0,0-.523-.56c-.207-.02-.418,0-.65,0m-4.831-9a.594.594,0,1,0-.6.587.587.587,0,0,0,.6-.587M8.4,1.8a.6.6,0,1,0-.583.6A.591.591,0,0,0,8.4,1.8" transform="translate(0.001 0)" fill="#fff"/>
    <path id="Path_24380" data-name="Path 24380" d="M131.63,261.254a10.247,10.247,0,0,1-4.363-.929.615.615,0,0,1-.393-.773.589.589,0,0,1,.823-.342,8.553,8.553,0,0,0,2.784.771,9.429,9.429,0,0,0,4.971-.712c.043-.019.085-.04.128-.058a.6.6,0,0,1,.813.285.571.571,0,0,1-.316.8,14.355,14.355,0,0,1-1.988.678c-.8.18-1.632.241-2.45.354l-.009-.071" transform="translate(-119.633 -244.443)" fill="#fff"/>
    <path id="Path_24381" data-name="Path 24381" d="M236.191,149.816a.6.6,0,1,1-1.188.1c-.056-.409-.279-.631-.625-.622s-.54.232-.586.633a.6.6,0,0,1-1.194-.072,1.8,1.8,0,0,1,3.593-.036" transform="translate(-219.38 -139.682)" fill="#fff"/>
    <path id="Path_24382" data-name="Path 24382" d="M130.518,149.817a.6.6,0,1,1-1.187.1c-.052-.4-.267-.619-.6-.621s-.563.224-.61.634a.6.6,0,0,1-1.192-.074,1.8,1.8,0,0,1,3.591-.035" transform="translate(-119.714 -139.683)" fill="#fff"/>
  </g>
</svg>
