<svg id="Group_12513" data-name="Group 12513" xmlns="http://www.w3.org/2000/svg" width="168" height="100" viewBox="0 0 168 100">
  <path id="Rectangle_2670" data-name="Rectangle 2670" d="M0,0H9a5,5,0,0,1,5,5V95a5,5,0,0,1-5,5H0a0,0,0,0,1,0,0V0A0,0,0,0,1,0,0Z" fill="#eaeaea"/>
  <path id="Rectangle_2671" data-name="Rectangle 2671" d="M5,0h9a0,0,0,0,1,0,0V100a0,0,0,0,1,0,0H5a5,5,0,0,1-5-5V5A5,5,0,0,1,5,0Z" transform="translate(154)" fill="#eaeaea"/>
  <rect id="Rectangle_2676" data-name="Rectangle 2676" width="120" height="100" rx="5" transform="translate(24)" fill="#053c6d"/>
</svg>
