<?xml version="1.0" encoding="utf-8"?>
<!-- Generator: Adobe Illustrator 25.4.2, SVG Export Plug-In . SVG Version: 6.00 Build 0)  -->
<svg version="1.1" id="Layer_1" xmlns="http://www.w3.org/2000/svg" xmlns:xlink="http://www.w3.org/1999/xlink" x="0px" y="0px"
	 viewBox="0 0 64 64" style="enable-background:new 0 0 64 64;" xml:space="preserve">
<style type="text/css">
	.st0{fill:#FFFFFF;}
</style>
<g id="Discussing_criticize">
	<path class="st0" d="M38,26.2H5.4c-1.5,0-2.7,1.2-2.7,2.7v21.5c0,1.5,1.2,2.7,2.7,2.7h10.1c0.8,0,1.5,0.7,1.5,1.5v5.1
		c0,0.9,0.7,1.6,1.6,1.6c0.4,0,0.8-0.1,1.1-0.4l8-7.2c0.4-0.4,0.9-0.6,1.5-0.6H38c1.5,0,2.7-1.2,2.7-2.7V29
		C40.7,27.4,39.5,26.2,38,26.2z M21.7,44.3H11c-0.7,0-1.4-0.6-1.4-1.3s0.6-1.4,1.3-1.4c0,0,0,0,0.1,0h10.7c0.7,0,1.4,0.6,1.4,1.3
		C23.1,43.6,22.5,44.2,21.7,44.3C21.8,44.3,21.7,44.3,21.7,44.3z M32.4,44.3h-4.2c-0.7,0-1.4-0.6-1.4-1.3c0-0.7,0.6-1.4,1.3-1.4
		c0,0,0,0,0.1,0h4.2c0.7,0,1.3,0.6,1.3,1.4C33.7,43.7,33.1,44.2,32.4,44.3z M32.4,37.4H11c-0.7,0-1.4-0.6-1.4-1.3s0.6-1.4,1.3-1.4
		c0,0,0,0,0.1,0h21.4c0.7,0,1.3,0.6,1.3,1.4C33.7,36.8,33.1,37.4,32.4,37.4z"/>
	<path class="st0" d="M58.6,6.7H26c-1.5,0-2.7,1.2-2.7,2.7c0,0,0,0,0,0v14.1H38c3,0,5.4,2.4,5.4,5.4v7.2l5.9,5.3
		c0.7,0.6,1.7,0.5,2.3-0.1c0.3-0.3,0.4-0.7,0.4-1.1v-5.1c0-0.8,0.7-1.5,1.5-1.5c0,0,0,0,0,0h5.1c1.5,0,2.7-1.2,2.7-2.7V9.4
		C61.3,7.9,60.1,6.7,58.6,6.7C58.6,6.7,58.6,6.7,58.6,6.7z M53,24.6h-7.1c-0.7,0-1.4-0.6-1.4-1.3s0.6-1.4,1.3-1.4c0,0,0,0,0.1,0H53
		c0.7,0,1.4,0.6,1.4,1.3S53.8,24.6,53,24.6C53,24.6,53,24.6,53,24.6z M53,18H31.6c-0.7,0-1.4-0.6-1.4-1.3c0-0.7,0.6-1.4,1.3-1.4
		c0,0,0,0,0.1,0H53c0.7,0,1.4,0.6,1.4,1.3S53.8,17.9,53,18C53,18,53,18,53,18z"/>
</g>
</svg>
