<svg xmlns="http://www.w3.org/2000/svg" xmlns:xlink="http://www.w3.org/1999/xlink" viewBox="0 0 101.043 96.952">
  <defs>
    <filter id="Path_24428" x="0" y="0" width="40" height="40" filterUnits="userSpaceOnUse">
      <feOffset input="SourceAlpha"/>
      <feGaussianBlur stdDeviation="2.5" result="blur"/>
      <feFlood flood-opacity="0.161"/>
      <feComposite operator="in" in2="blur"/>
      <feComposite in="SourceGraphic"/>
    </filter>
  </defs>
  <g id="Group_13118" data-name="Group 13118" transform="translate(18389.479 10277.466)">        
    <g id="Group_13128" data-name="Group 13128" transform="translate(-18354.783 -10264.497)">
      <g id="Group_13125" data-name="Group 13125">
        <g id="Group_13129" data-name="Group 13129">
          <path id="Path_24401" data-name="Path 24401" d="M39.213,63.035A11.809,11.809,0,1,1,27.4,51.226,11.809,11.809,0,0,1,39.213,63.035" transform="translate(-13.106 -43.051)" fill="#053c6d"/>
          <path id="Path_24402" data-name="Path 24402" d="M34.936,31.309C29.43,21.335,30.871,14.42,30.712,10.43c0-.638.194-2.529-.763-2.289-.638.16-.833,1.491-.913,1.89-.4,1.2-.33,2.274-.8,4.628C27.4,11.92,27.174,4.34,26.057,4.26c-.958,0-.272,5.605-.584,8.458-1.491-4.508-2.073-10.771-3.725-10-.8.372.711,4.961,1.463,10.665-1.782-2.513-3.963-9.548-5.186-9.1-1.105.408,2.447,8.219,3.351,11.33-1.436-.878-5.081-6.534-5.665-6.091-.771.585,2.527,6.117,3.644,8.032a48.15,48.15,0,0,1,3.3,6.756A25.4,25.4,0,0,1,25.3,33.835a11.882,11.882,0,0,0,4.957-.161,11.43,11.43,0,0,0,4.677-2.365" transform="translate(-13.106 -2.229)" fill="#ffd2d2"/>
          <path id="Path_24403" data-name="Path 24403" d="M106.371,39.2a.459.459,0,0,1-.718-.08c0-.2-.02-1.356.479-1.4s.239,1.476.239,1.476" transform="translate(-88.792 -31.701)" fill="#fff0f0"/>
          <path id="Path_24404" data-name="Path 24404" d="M79.791,12.726s-.379.2-.219,1.257a.537.537,0,0,0,.638,0s.06-1.217-.419-1.257" transform="translate(-66.84 -10.695)" fill="#fff0f0"/>
          <path id="Path_24405" data-name="Path 24405" d="M30.351,12.822s-.314.291.116,1.27a.537.537,0,0,0,.616-.166s-.259-1.19-.732-1.1" transform="translate(-25.414 -10.772)" fill="#fff0f0"/>
          <path id="Path_24406" data-name="Path 24406" d="M15.874,45.574s-.205.263.248.964a.419.419,0,0,0,.454-.2s-.348-.884-.7-.759" transform="translate(-13.302 -38.291)" fill="#fff0f0"/>
          <path id="Path_24407" data-name="Path 24407" d="M53.917,2.551s-.414.334.071,1.43a.762.762,0,0,0,.789-.2s-.258-1.337-.861-1.231" transform="translate(-45.174 -2.139)" fill="#fff0f0"/>
          <path id="Path_24408" data-name="Path 24408" d="M41.846,41.506l.063-.03-.024.01a.3.3,0,0,1,.074-.022l-.026,0,.023,0a.1.1,0,0,0,.07-.029.1.1,0,0,0-.07-.17.484.484,0,0,0-.21.067.1.1,0,0,0-.046.06.1.1,0,0,0,.01.077.1.1,0,0,0,.06.046l.027,0a.1.1,0,0,0,.05-.014" transform="translate(-35.042 -34.681)" fill="#ea9d9d"/>
          <path id="Path_24409" data-name="Path 24409" d="M41.819,43.117a1,1,0,0,0,.4-.17.109.109,0,0,0,.046-.06.1.1,0,0,0-.146-.113.809.809,0,0,1-.086.056l-.04.021-.023.011-.012.005.006,0s-.019.007-.024.01l-.025.009-.043.014c-.033.01-.067.019-.1.026a.1.1,0,0,0-.07.123.1.1,0,0,0,.123.07" transform="translate(-35.039 -35.936)" fill="#ea9d9d"/>
          <path id="Path_24410" data-name="Path 24410" d="M62.487,34.706l.051-.009.011,0,.023,0,.112-.014a1.4,1.4,0,0,0,.254-.052.1.1,0,1,0-.053-.192,1.058,1.058,0,0,1-.119.031l-.059.01-.029,0-.012,0h0c-.078.01-.157.017-.234.033a.1.1,0,0,0-.07.123.1.1,0,0,0,.123.07" transform="translate(-52.408 -28.935)" fill="#ea9d9d"/>
          <path id="Path_24411" data-name="Path 24411" d="M61.987,37.572a6.1,6.1,0,0,0,.612-.106.1.1,0,1,0-.053-.192,6.2,6.2,0,0,1-.612.106.1.1,0,0,0-.07.123.1.1,0,0,0,.123.07" transform="translate(-51.989 -31.322)" fill="#ea9d9d"/>
          <path id="Path_24412" data-name="Path 24412" d="M81.988,43.823h0l.015,0,.035,0,.059-.006c.043,0,.087-.006.13-.008.087,0,.174,0,.261,0a.1.1,0,0,0,0-.2,3.979,3.979,0,0,0-.558.03.1.1,0,0,0-.07.123.1.1,0,0,0,.123.07" transform="translate(-68.797 -36.643)" fill="#ea9d9d"/>
          <path id="Path_24413" data-name="Path 24413" d="M83.154,41.323a.508.508,0,0,1,.09-.02l-.027,0a.956.956,0,0,1,.123-.006.1.1,0,0,0,.1-.1.1.1,0,0,0-.1-.1.765.765,0,0,0-.239.03.105.105,0,0,0-.06.046.1.1,0,0,0-.01.077.1.1,0,0,0,.123.07" transform="translate(-69.778 -34.542)" fill="#ea9d9d"/>
          <path id="Path_24414" data-name="Path 24414" d="M26.513,64.141c.075-.05.141-.112.212-.168l-.02.016.047-.034a.105.105,0,0,0,.046-.06.1.1,0,0,0-.01-.077.1.1,0,0,0-.136-.036c-.075.05-.141.112-.212.168l.02-.015-.047.034a.105.105,0,0,0-.046.06.1.1,0,0,0,.01.077.1.1,0,0,0,.06.046.1.1,0,0,0,.077-.01" transform="translate(-22.156 -53.593)" fill="#ea9d9d"/>
          <path id="Path_24415" data-name="Path 24415" d="M27.511,66.079a3.952,3.952,0,0,0,.419-.308.1.1,0,0,0,.029-.071.1.1,0,0,0-.029-.071.1.1,0,0,0-.07-.029.115.115,0,0,0-.071.029l-.1.078-.025.019-.011.008-.049.037c-.064.047-.128.093-.2.134a.1.1,0,0,0,.1.172" transform="translate(-22.994 -55.132)" fill="#ea9d9d"/>
          <path id="Path_24416" data-name="Path 24416" d="M104.794,62.466c.037,0,.074,0,.111,0l.053,0,.03,0h.006c.067.01.133.023.2.036a.1.1,0,1,0,.053-.192,2.345,2.345,0,0,0-.452-.057.1.1,0,1,0,0,.2" transform="translate(-87.987 -52.33)" fill="#ea9d9d"/>
          <path id="Path_24417" data-name="Path 24417" d="M105.772,59.128a.949.949,0,0,0,.293.03.1.1,0,0,0,0-.2,1.419,1.419,0,0,1-.182-.008l.026,0a.483.483,0,0,1-.084-.018.1.1,0,0,0-.123.07.1.1,0,0,0,.07.123" transform="translate(-88.831 -49.527)" fill="#ea9d9d"/>
          <path id="Path_24418" data-name="Path 24418" d="M50.487,88.539a.988.988,0,0,0,.549-.265.1.1,0,1,0-.141-.141c-.016.016-.032.031-.049.045l-.013.01,0,0-.027.019a.873.873,0,0,1-.12.068l-.015.007c-.009,0-.008,0,0,0l-.031.012-.064.021a1.053,1.053,0,0,1-.139.03.1.1,0,0,0-.07.123.1.1,0,0,0,.123.07" transform="translate(-42.324 -74.045)" fill="#ea9d9d"/>
          <path id="Path_24419" data-name="Path 24419" d="M62.653,75.156a1.234,1.234,0,0,0,.266-.066.959.959,0,0,0,.256-.146.1.1,0,0,0,0-.141.1.1,0,0,0-.141,0c-.011.009,0,0,0,0s-.01.007-.012.009L63,74.827c-.018.012-.035.023-.054.033l-.053.027-.014.006c-.013.006.016-.006,0,0l-.032.012a1.265,1.265,0,0,1-.252.061.1.1,0,0,0-.07.123.1.1,0,0,0,.123.07" transform="translate(-52.549 -62.842)" fill="#ea9d9d"/>
          <path id="Path_24420" data-name="Path 24420" d="M75.774,71.518a1.705,1.705,0,0,0,.311.027.72.72,0,0,0,.325-.09.1.1,0,0,0-.1-.172l-.039.02c-.029.014.015,0-.015.007a.588.588,0,0,1-.067.021l-.029.006s-.042.006-.022,0l-.063,0a1.042,1.042,0,0,1-.13-.005l-.067-.008-.012,0-.039-.005a.1.1,0,0,0-.123.07.1.1,0,0,0,.07.123" transform="translate(-63.621 -59.896)" fill="#ea9d9d"/>
          <path id="Path_24421" data-name="Path 24421" d="M94.772,84.628a.949.949,0,0,0,.293.03.1.1,0,0,0,0-.2,1.417,1.417,0,0,1-.182-.008l.026,0a.483.483,0,0,1-.084-.018.1.1,0,0,0-.123.07.1.1,0,0,0,.07.123" transform="translate(-79.587 -70.958)" fill="#ea9d9d"/>
          <path id="Path_24422" data-name="Path 24422" d="M72.814,140.737c-3.159-.577-6.286.445-9.138,1.742-.468.213-.062.9.4.689,2.635-1.2,5.6-2.2,8.523-1.662.5.092.718-.677.212-.769" transform="translate(-53.34 -118.139)" fill="#ff7676"/>
          <path id="Path_24423" data-name="Path 24423" d="M116.487,19.693c2.447-.638,2.234-4.681,2.766-6.6.851-3.085,3.192-4.043,6.277-3.3,5.639,1.277,6.6,9.681.319,10.958-2.021.425-7.341-.532-9.362-1.064" transform="translate(-97.898 -8.033)" fill="#ffd602"/>
        </g>
      </g>      
    </g>
  </g>
</svg>
