<?xml version="1.0" encoding="utf-8"?>
<!-- Generator: Adobe Illustrator 25.4.2, SVG Export Plug-In . SVG Version: 6.00 Build 0)  -->
<svg version="1.1" id="Layer_1" xmlns="http://www.w3.org/2000/svg" xmlns:xlink="http://www.w3.org/1999/xlink" x="0px" y="0px"
	 viewBox="0 0 24 24" style="enable-background:new 0 0 24 24;" xml:space="preserve">
<style type="text/css">
	.st0{fill:#FFFFFF;}
</style>
<path class="st0" d="M4,18h2v4.1l5.1-4.1H16c1.1,0,2-0.9,2-2V8c0-1.1-0.9-2-2-2H4C2.9,6,2,6.9,2,8v8C2,17.1,2.9,18,4,18z"/>
<path class="st0" d="M20,2H8C6.9,2,6,2.9,6,4h12c1.1,0,2,0.9,2,2v8c1.1,0,2-0.9,2-2V4C22,2.9,21.1,2,20,2z"/>
</svg>
