<svg id="Group_803" data-name="Group 803" xmlns="http://www.w3.org/2000/svg" width="20" height="20" viewBox="0 0 20 20">
  <circle id="Ellipse_22" data-name="Ellipse 22" cx="1.5" cy="1.5" r="1.5" transform="translate(12.493 6)" fill="#fbad17"/>
  <circle id="Ellipse_23" data-name="Ellipse 23" cx="1.5" cy="1.5" r="1.5" transform="translate(5.493 6)" fill="#fbad17"/>
  <path id="Path_722" data-name="Path 722" d="M46.742,19.194a4,4,0,0,1-3.45-2h-1.67a5.495,5.495,0,0,0,10.24,0h-1.67A3.984,3.984,0,0,1,46.742,19.194Zm-.01-14a10,10,0,1,0,10.01,10A10,10,0,0,0,46.732,5.194Zm.01,18a8,8,0,1,1,8-8A8,8,0,0,1,46.742,23.194Z" transform="translate(-36.742 -5.194)" fill="#fbad17"/>
</svg>
